<?xml version="1.0" encoding="UTF-8" standalone="no"?>
<svg
   xmlns:dc="http://purl.org/dc/elements/1.1/"
   xmlns:cc="http://creativecommons.org/ns#"
   xmlns:rdf="http://www.w3.org/1999/02/22-rdf-syntax-ns#"
   xmlns:svg="http://www.w3.org/2000/svg"
   xmlns="http://www.w3.org/2000/svg"
   xmlns:xlink="http://www.w3.org/1999/xlink"
   xmlns:sodipodi="http://sodipodi.sourceforge.net/DTD/sodipodi-0.dtd"
   xmlns:inkscape="http://www.inkscape.org/namespaces/inkscape"
   version="1.1"
   width="744.09448"
   height="1052.3622"
   viewBox="0 0 82677.164 116929.21"
   id="svg2"
   inkscape:version="0.48.2 r9819"
   sodipodi:docname="yamashnik-B_Cu.svg">
  <metadata
     id="metadata920">
    <rdf:RDF>
      <cc:Work
         rdf:about="">
        <dc:format>image/svg+xml</dc:format>
        <dc:type
           rdf:resource="http://purl.org/dc/dcmitype/StillImage" />
      </cc:Work>
    </rdf:RDF>
  </metadata>
  <defs
     id="defs918" />
  <sodipodi:namedview
     pagecolor="#ffffff"
     bordercolor="#666666"
     borderopacity="1"
     objecttolerance="10"
     gridtolerance="10"
     guidetolerance="10"
     inkscape:pageopacity="0"
     inkscape:pageshadow="2"
     inkscape:window-width="1440"
     inkscape:window-height="852"
     id="namedview916"
     showgrid="false"
     inkscape:zoom="1.7940471"
     inkscape:cx="298.15583"
     inkscape:cy="882.91998"
     inkscape:window-x="0"
     inkscape:window-y="0"
     inkscape:window-maximized="0"
     inkscape:current-layer="svg2" />
  <title
     id="title4">SVG Picture created as yamashnik-B_Cu.svg date 2013/05/26 18:44:30 </title>
  <desc
     id="desc6">Picture generated by PCBNEW </desc>
  <g
     style="fill:#000000;fill-opacity:1;stroke:#000000;stroke-linecap:round;stroke-linejoin:round;stroke-opacity:1"
     id="g8"
     transform="translate(371.59957,5635.143)" />
  <g
     style="fill:#000000;fill-opacity:0;stroke:#000000;stroke-width:59.05509949;stroke-linecap:round;stroke-linejoin:round;stroke-opacity:1"
     id="g70"
     transform="translate(371.59957,5635.143)" />
  <g
     style="fill:#ffffff;fill-opacity:0;stroke:#ffffff;stroke-width:59.05509949;stroke-linecap:round;stroke-linejoin:round;stroke-opacity:1"
     id="g844"
     transform="translate(371.59957,5635.143)" />
  <g
     id="g3897"
     transform="matrix(0,-1,1,0,18116.213,33460.565)">
    <g
       transform="translate(-57474.066,-50786.058)"
       id="g10"
       style="fill:#000000;fill-opacity:0;stroke:#000000;stroke-width:98.42520142;stroke-linecap:round;stroke-linejoin:round;stroke-opacity:1">
      <path
         inkscape:connector-curvature="0"
         id="path12"
         d="m 72222,62166 0,382 -23,45 -22,23 -45,22 -90,0 -45,-22 -23,-23 -22,-45 0,-382" />
      <path
         inkscape:connector-curvature="0"
         id="path14"
         d="m 71749,62616 -67,22 -113,0 -45,-22 -22,-23 -23,-45 0,-45 23,-45 22,-22 45,-23 90,-22 45,-23 23,-22 22,-45 0,-45 -22,-45 -23,-23 -45,-22 -112,0 -68,22" />
      <path
         inkscape:connector-curvature="0"
         id="path16"
         d="m 71119,62391 -67,22 -23,23 -22,45 0,67 22,45 23,23 45,22 180,0 0,-472 -158,0 -45,22 -22,23 -23,45 0,45 23,45 22,22 45,23 158,0" />
      <path
         inkscape:connector-curvature="0"
         id="path18"
         d="m 70444,62638 0,-472 -157,337 -158,-337 0,472" />
      <path
         inkscape:connector-curvature="0"
         id="path20"
         d="m 69927,62616 -68,22 -112,0 -45,-22 -22,-23 -23,-45 0,-45 23,-45 22,-22 45,-23 90,-22 45,-23 22,-22 23,-45 0,-45 -23,-45 -22,-23 -45,-22 -112,0 -68,22" />
      <path
         inkscape:connector-curvature="0"
         id="path22"
         d="m 69500,62166 -315,472" />
      <path
         inkscape:connector-curvature="0"
         id="path24"
         d="m 69185,62166 315,472" />
      <path
         inkscape:connector-curvature="0"
         id="path26"
         d="m 69005,62458 -360,0" />
      <path
         inkscape:connector-curvature="0"
         id="path28"
         d="m 68195,62638 225,0 0,-472" />
      <path
         inkscape:connector-curvature="0"
         id="path30"
         d="m 68037,62638 0,-315" />
      <path
         inkscape:connector-curvature="0"
         id="path32"
         d="m 68037,62166 23,22 -23,23 -22,-23 22,-22 0,45" />
      <path
         inkscape:connector-curvature="0"
         id="path34"
         d="m 67812,62323 0,315" />
      <path
         inkscape:connector-curvature="0"
         id="path36"
         d="m 67812,62368 -22,-22 -45,-23 -68,0 -45,23 -22,45 0,247" />
      <path
         inkscape:connector-curvature="0"
         id="path38"
         d="m 67385,62638 0,-472" />
      <path
         inkscape:connector-curvature="0"
         id="path40"
         d="m 67340,62458 -135,180" />
      <path
         inkscape:connector-curvature="0"
         id="path42"
         d="m 67205,62323 180,180" />
    </g>
    <g
       transform="translate(-57474.066,-50786.058)"
       id="g44"
       style="fill:#000000;fill-opacity:0;stroke:#000000;stroke-width:118.11000061;stroke-linecap:round;stroke-linejoin:round;stroke-opacity:1">
      <path
         inkscape:connector-curvature="0"
         id="path46"
         d="m 80507,60906 0,337" />
      <path
         inkscape:connector-curvature="0"
         id="path48"
         d="m 80507,61074 591,0 -84,56 -57,57 -28,56" />
      <path
         inkscape:connector-curvature="0"
         id="path50"
         d="m 81042,60231 28,-29 28,-56 0,-140 -28,-57 -28,-28 -57,-28 -56,0 -84,28 -338,338 0,-366" />
      <path
         inkscape:connector-curvature="0"
         id="path52"
         d="m 81098,59246 0,-365 -225,197 0,-85 -28,-56 -28,-28 -57,-28 -140,0 -56,28 -29,28 -28,56 0,169 28,56 29,28" />
      <path
         inkscape:connector-curvature="0"
         id="path54"
         d="m 80901,57925 -394,0" />
      <path
         inkscape:connector-curvature="0"
         id="path56"
         d="m 81126,58065 -422,141 0,-366" />
      <path
         inkscape:connector-curvature="0"
         id="path58"
         d="m 81098,56884 0,281 -281,28 28,-28 28,-56 0,-140 -28,-57 -28,-28 -57,-28 -140,0 -56,28 -29,28 -28,57 0,140 28,56 29,28" />
    </g>
    <g
       transform="translate(-57474.066,-50786.058)"
       id="g60"
       style="fill:#000000;fill-opacity:0;stroke:#000000;stroke-width:39.37009811;stroke-linecap:round;stroke-linejoin:round;stroke-opacity:1">
      <path
         inkscape:connector-curvature="0"
         id="path62"
         d="m 81450,54125 -16900,0" />
      <path
         inkscape:connector-curvature="0"
         id="path64"
         d="m 81450,63750 0,-10150" />
      <path
         inkscape:connector-curvature="0"
         id="path66"
         d="m 64575,63000 16900,0" />
      <path
         inkscape:connector-curvature="0"
         id="path68"
         d="m 64550,53600 0,10150" />
    </g>
    <g
       transform="translate(-57474.066,-50786.058)"
       id="g72"
       style="fill:#000000;fill-opacity:1;stroke:#000000;stroke-width:59.05509949;stroke-linecap:round;stroke-linejoin:round;stroke-opacity:1">
      <polyline
         id="polyline74"
         points="67129,58179 67870,58179 67870,58720 67129,58720 67129,58179 "
         style="fill-rule:evenodd" />
      <polyline
         id="polyline76"
         points="67129,59479 67870,59479 67870,60020 67129,60020 67129,59479 "
         style="fill-rule:evenodd" />
      <polyline
         id="polyline78"
         points="68104,57195 68104,56804 68295,56804 68295,57195 68104,57195 "
         style="fill-rule:evenodd" />
      <polyline
         id="polyline80"
         points="68704,57195 68704,56804 68895,56804 68895,57195 68704,57195 "
         style="fill-rule:evenodd" />
      <polyline
         id="polyline82"
         points="78295,56195 77904,56195 77904,56004 78295,56004 78295,56195 "
         style="fill-rule:evenodd" />
      <polyline
         id="polyline84"
         points="78295,55595 77904,55595 77904,55404 78295,55404 78295,55595 "
         style="fill-rule:evenodd" />
      <polyline
         id="polyline86"
         points="72204,59104 72595,59104 72595,59295 72204,59295 72204,59104 "
         style="fill-rule:evenodd" />
      <polyline
         id="polyline88"
         points="72204,59704 72595,59704 72595,59895 72204,59895 72204,59704 "
         style="fill-rule:evenodd" />
      <polyline
         id="polyline90"
         points="79570,61370 79029,61370 79029,60829 79570,60829 79570,61370 "
         style="fill-rule:evenodd" />
      <circle
         d="m 79570.472,60100 c 0,149.378 -121.094,270.472 -270.472,270.472 -149.378,0 -270.472,-121.094 -270.472,-270.472 0,-149.378 121.094,-270.472 270.472,-270.472 149.378,0 270.472,121.094 270.472,270.472 z"
         sodipodi:ry="270.47198"
         sodipodi:rx="270.47198"
         sodipodi:cy="60100"
         sodipodi:cx="79300"
         id="circle92"
         r="270.47198"
         cy="60100"
         cx="79300" />
      <circle
         d="m 79570.472,59100 c 0,149.378 -121.094,270.472 -270.472,270.472 -149.378,0 -270.472,-121.094 -270.472,-270.472 0,-149.378 121.094,-270.472 270.472,-270.472 149.378,0 270.472,121.094 270.472,270.472 z"
         sodipodi:ry="270.47198"
         sodipodi:rx="270.47198"
         sodipodi:cy="59100"
         sodipodi:cx="79300"
         id="circle94"
         r="270.47198"
         cy="59100"
         cx="79300" />
      <circle
         d="m 79570.472,58100 c 0,149.378 -121.094,270.472 -270.472,270.472 -149.378,0 -270.472,-121.094 -270.472,-270.472 0,-149.378 121.094,-270.472 270.472,-270.472 149.378,0 270.472,121.094 270.472,270.472 z"
         sodipodi:ry="270.47198"
         sodipodi:rx="270.47198"
         sodipodi:cy="58100"
         sodipodi:cx="79300"
         id="circle96"
         r="270.47198"
         cy="58100"
         cx="79300" />
      <circle
         d="m 79570.472,57100 c 0,149.378 -121.094,270.472 -270.472,270.472 -149.378,0 -270.472,-121.094 -270.472,-270.472 0,-149.378 121.094,-270.472 270.472,-270.472 149.378,0 270.472,121.094 270.472,270.472 z"
         sodipodi:ry="270.47198"
         sodipodi:rx="270.47198"
         sodipodi:cy="57100"
         sodipodi:cx="79300"
         id="circle98"
         r="270.47198"
         cy="57100"
         cx="79300" />
      <polyline
         id="polyline100"
         points="68529,56170 68529,55629 69070,55629 69070,56170 68529,56170 "
         style="fill-rule:evenodd" />
      <circle
         d="m 70070.472,55900 c 0,149.378 -121.094,270.472 -270.472,270.472 -149.378,0 -270.472,-121.094 -270.472,-270.472 0,-149.378 121.094,-270.472 270.472,-270.472 149.378,0 270.472,121.094 270.472,270.472 z"
         sodipodi:ry="270.47198"
         sodipodi:rx="270.47198"
         sodipodi:cy="55900"
         sodipodi:cx="69800"
         id="circle102"
         r="270.47198"
         cy="55900"
         cx="69800" />
      <circle
         d="m 71070.472,55900 c 0,149.378 -121.094,270.472 -270.472,270.472 -149.378,0 -270.472,-121.094 -270.472,-270.472 0,-149.378 121.094,-270.472 270.472,-270.472 149.378,0 270.472,121.094 270.472,270.472 z"
         sodipodi:ry="270.47198"
         sodipodi:rx="270.47198"
         sodipodi:cy="55900"
         sodipodi:cx="70800"
         id="circle104"
         r="270.47198"
         cy="55900"
         cx="70800" />
      <circle
         d="m 72070.472,55900 c 0,149.378 -121.094,270.472 -270.472,270.472 -149.378,0 -270.472,-121.094 -270.472,-270.472 0,-149.378 121.094,-270.472 270.472,-270.472 149.378,0 270.472,121.094 270.472,270.472 z"
         sodipodi:ry="270.47198"
         sodipodi:rx="270.47198"
         sodipodi:cy="55900"
         sodipodi:cx="71800"
         id="circle106"
         r="270.47198"
         cy="55900"
         cx="71800" />
      <polyline
         id="polyline108"
         points="72279,58545 72279,58054 72570,58054 72570,58545 72279,58545 "
         style="fill-rule:evenodd" />
      <polyline
         id="polyline110"
         points="73029,58545 73029,58054 73320,58054 73320,58545 73029,58545 "
         style="fill-rule:evenodd" />
      <polyline
         id="polyline112"
         points="75079,56045 75079,55554 75370,55554 75370,56045 75079,56045 "
         style="fill-rule:evenodd" />
      <polyline
         id="polyline114"
         points="75829,56045 75829,55554 76120,55554 76120,56045 75829,56045 "
         style="fill-rule:evenodd" />
      <polyline
         id="polyline116"
         points="73979,60945 73979,60454 74270,60454 74270,60945 73979,60945 "
         style="fill-rule:evenodd" />
      <polyline
         id="polyline118"
         points="74729,60945 74729,60454 75020,60454 75020,60945 74729,60945 "
         style="fill-rule:evenodd" />
      <polyline
         id="polyline120"
         points="73854,58245 73854,57754 74345,57754 74345,58245 73854,58245 "
         style="fill-rule:evenodd" />
      <circle
         d="m 75345.472,58000 c 0,135.57 -109.902,245.472 -245.472,245.472 -135.57,0 -245.472,-109.902 -245.472,-245.472 0,-135.57 109.902,-245.472 245.472,-245.472 135.57,0 245.472,109.902 245.472,245.472 z"
         sodipodi:ry="245.472"
         sodipodi:rx="245.472"
         sodipodi:cy="58000"
         sodipodi:cx="75100"
         id="circle122"
         r="245.472"
         cy="58000"
         cx="75100" />
      <circle
         d="m 76345.472,58000 c 0,135.57 -109.902,245.472 -245.472,245.472 -135.57,0 -245.472,-109.902 -245.472,-245.472 0,-135.57 109.902,-245.472 245.472,-245.472 135.57,0 245.472,109.902 245.472,245.472 z"
         sodipodi:ry="245.472"
         sodipodi:rx="245.472"
         sodipodi:cy="58000"
         sodipodi:cx="76100"
         id="circle124"
         r="245.472"
         cy="58000"
         cx="76100" />
      <circle
         d="m 77345.472,58000 c 0,135.57 -109.902,245.472 -245.472,245.472 -135.57,0 -245.472,-109.902 -245.472,-245.472 0,-135.57 109.902,-245.472 245.472,-245.472 135.57,0 245.472,109.902 245.472,245.472 z"
         sodipodi:ry="245.472"
         sodipodi:rx="245.472"
         sodipodi:cy="58000"
         sodipodi:cx="77100"
         id="circle126"
         r="245.472"
         cy="58000"
         cx="77100" />
      <circle
         d="m 77345.472,55000 c 0,135.57 -109.902,245.472 -245.472,245.472 -135.57,0 -245.472,-109.902 -245.472,-245.472 0,-135.57 109.902,-245.472 245.472,-245.472 135.57,0 245.472,109.902 245.472,245.472 z"
         sodipodi:ry="245.472"
         sodipodi:rx="245.472"
         sodipodi:cy="55000"
         sodipodi:cx="77100"
         id="circle128"
         r="245.472"
         cy="55000"
         cx="77100" />
      <circle
         d="m 76345.472,55000 c 0,135.57 -109.902,245.472 -245.472,245.472 -135.57,0 -245.472,-109.902 -245.472,-245.472 0,-135.57 109.902,-245.472 245.472,-245.472 135.57,0 245.472,109.902 245.472,245.472 z"
         sodipodi:ry="245.472"
         sodipodi:rx="245.472"
         sodipodi:cy="55000"
         sodipodi:cx="76100"
         id="circle130"
         r="245.472"
         cy="55000"
         cx="76100" />
      <circle
         d="m 75345.472,55000 c 0,135.57 -109.902,245.472 -245.472,245.472 -135.57,0 -245.472,-109.902 -245.472,-245.472 0,-135.57 109.902,-245.472 245.472,-245.472 135.57,0 245.472,109.902 245.472,245.472 z"
         sodipodi:ry="245.472"
         sodipodi:rx="245.472"
         sodipodi:cy="55000"
         sodipodi:cx="75100"
         id="circle132"
         r="245.472"
         cy="55000"
         cx="75100" />
      <circle
         d="m 74345.472,55000 c 0,135.57 -109.902,245.472 -245.472,245.472 -135.57,0 -245.472,-109.902 -245.472,-245.472 0,-135.57 109.902,-245.472 245.472,-245.472 135.57,0 245.472,109.902 245.472,245.472 z"
         sodipodi:ry="245.472"
         sodipodi:rx="245.472"
         sodipodi:cy="55000"
         sodipodi:cx="74100"
         id="circle134"
         r="245.472"
         cy="55000"
         cx="74100" />
      <polyline
         id="polyline136"
         points="73854,62645 73854,62154 74345,62154 74345,62645 73854,62645 "
         style="fill-rule:evenodd" />
      <circle
         d="m 75345.472,62400 c 0,135.57 -109.902,245.472 -245.472,245.472 -135.57,0 -245.472,-109.902 -245.472,-245.472 0,-135.57 109.902,-245.472 245.472,-245.472 135.57,0 245.472,109.902 245.472,245.472 z"
         sodipodi:ry="245.472"
         sodipodi:rx="245.472"
         sodipodi:cy="62400"
         sodipodi:cx="75100"
         id="circle138"
         r="245.472"
         cy="62400"
         cx="75100" />
      <circle
         d="m 76345.472,62400 c 0,135.57 -109.902,245.472 -245.472,245.472 -135.57,0 -245.472,-109.902 -245.472,-245.472 0,-135.57 109.902,-245.472 245.472,-245.472 135.57,0 245.472,109.902 245.472,245.472 z"
         sodipodi:ry="245.472"
         sodipodi:rx="245.472"
         sodipodi:cy="62400"
         sodipodi:cx="76100"
         id="circle140"
         r="245.472"
         cy="62400"
         cx="76100" />
      <circle
         d="m 77345.472,62400 c 0,135.57 -109.902,245.472 -245.472,245.472 -135.57,0 -245.472,-109.902 -245.472,-245.472 0,-135.57 109.902,-245.472 245.472,-245.472 135.57,0 245.472,109.902 245.472,245.472 z"
         sodipodi:ry="245.472"
         sodipodi:rx="245.472"
         sodipodi:cy="62400"
         sodipodi:cx="77100"
         id="circle142"
         r="245.472"
         cy="62400"
         cx="77100" />
      <circle
         d="m 77345.472,59400 c 0,135.57 -109.902,245.472 -245.472,245.472 -135.57,0 -245.472,-109.902 -245.472,-245.472 0,-135.57 109.902,-245.472 245.472,-245.472 135.57,0 245.472,109.902 245.472,245.472 z"
         sodipodi:ry="245.472"
         sodipodi:rx="245.472"
         sodipodi:cy="59400"
         sodipodi:cx="77100"
         id="circle144"
         r="245.472"
         cy="59400"
         cx="77100" />
      <circle
         d="m 76345.472,59400 c 0,135.57 -109.902,245.472 -245.472,245.472 -135.57,0 -245.472,-109.902 -245.472,-245.472 0,-135.57 109.902,-245.472 245.472,-245.472 135.57,0 245.472,109.902 245.472,245.472 z"
         sodipodi:ry="245.472"
         sodipodi:rx="245.472"
         sodipodi:cy="59400"
         sodipodi:cx="76100"
         id="circle146"
         r="245.472"
         cy="59400"
         cx="76100" />
      <circle
         d="m 75345.472,59400 c 0,135.57 -109.902,245.472 -245.472,245.472 -135.57,0 -245.472,-109.902 -245.472,-245.472 0,-135.57 109.902,-245.472 245.472,-245.472 135.57,0 245.472,109.902 245.472,245.472 z"
         sodipodi:ry="245.472"
         sodipodi:rx="245.472"
         sodipodi:cy="59400"
         sodipodi:cx="75100"
         id="circle148"
         r="245.472"
         cy="59400"
         cx="75100" />
      <circle
         d="m 74345.472,59400 c 0,135.57 -109.902,245.472 -245.472,245.472 -135.57,0 -245.472,-109.902 -245.472,-245.472 0,-135.57 109.902,-245.472 245.472,-245.472 135.57,0 245.472,109.902 245.472,245.472 z"
         sodipodi:ry="245.472"
         sodipodi:rx="245.472"
         sodipodi:cy="59400"
         sodipodi:cx="74100"
         id="circle150"
         r="245.472"
         cy="59400"
         cx="74100" />
    </g>
    <g
       transform="translate(-57474.066,-50786.058)"
       id="g152"
       style="fill:#000000;fill-opacity:1;stroke:#000000;stroke-width:98;stroke-linecap:round;stroke-linejoin:round;stroke-opacity:1">
      <path
         inkscape:connector-curvature="0"
         id="path154"
         d="m 68468,59691 296,0" />
      <path
         inkscape:connector-curvature="0"
         id="path156"
         d="m 68468,59494 296,0" />
      <path
         inkscape:connector-curvature="0"
         id="path158"
         d="m 68468,59297 296,0" />
      <path
         inkscape:connector-curvature="0"
         id="path160"
         d="m 68468,59100 296,0" />
      <path
         inkscape:connector-curvature="0"
         id="path162"
         d="m 68468,58903 296,0" />
      <path
         inkscape:connector-curvature="0"
         id="path164"
         d="m 68468,58706 296,0" />
      <path
         inkscape:connector-curvature="0"
         id="path166"
         d="m 68468,58509 296,0" />
      <path
         inkscape:connector-curvature="0"
         id="path168"
         d="m 69009,57968 0,296" />
      <path
         inkscape:connector-curvature="0"
         id="path170"
         d="m 69206,57968 0,296" />
      <path
         inkscape:connector-curvature="0"
         id="path172"
         d="m 69403,57968 0,296" />
      <path
         inkscape:connector-curvature="0"
         id="path174"
         d="m 69600,57968 0,296" />
      <path
         inkscape:connector-curvature="0"
         id="path176"
         d="m 69797,57968 0,296" />
      <path
         inkscape:connector-curvature="0"
         id="path178"
         d="m 69994,57968 0,296" />
      <path
         inkscape:connector-curvature="0"
         id="path180"
         d="m 70191,57968 0,296" />
      <path
         inkscape:connector-curvature="0"
         id="path182"
         d="m 70732,58509 -296,0" />
      <path
         inkscape:connector-curvature="0"
         id="path184"
         d="m 70732,58706 -296,0" />
      <path
         inkscape:connector-curvature="0"
         id="path186"
         d="m 70732,58903 -296,0" />
      <path
         inkscape:connector-curvature="0"
         id="path188"
         d="m 70732,59100 -296,0" />
      <path
         inkscape:connector-curvature="0"
         id="path190"
         d="m 70732,59297 -296,0" />
      <path
         inkscape:connector-curvature="0"
         id="path192"
         d="m 70732,59494 -296,0" />
      <path
         inkscape:connector-curvature="0"
         id="path194"
         d="m 70732,59691 -296,0" />
      <path
         inkscape:connector-curvature="0"
         id="path196"
         d="m 70191,60232 0,-296" />
      <path
         inkscape:connector-curvature="0"
         id="path198"
         d="m 69994,60232 0,-296" />
      <path
         inkscape:connector-curvature="0"
         id="path200"
         d="m 69797,60232 0,-296" />
      <path
         inkscape:connector-curvature="0"
         id="path202"
         d="m 69600,60232 0,-296" />
      <path
         inkscape:connector-curvature="0"
         id="path204"
         d="m 69403,60232 0,-296" />
      <path
         inkscape:connector-curvature="0"
         id="path206"
         d="m 69206,60232 0,-296" />
      <path
         inkscape:connector-curvature="0"
         id="path208"
         d="m 69009,60232 0,-296" />
    </g>
    <g
       transform="translate(-57474.066,-50786.058)"
       id="g210"
       style="fill:#000000;fill-opacity:1;stroke:#000000;stroke-width:59.05509949;stroke-linecap:round;stroke-linejoin:round;stroke-opacity:1">
      <polyline
         id="polyline212"
         points="70160,59660 69039,59660 69039,58539 70160,58539 70160,59660 "
         style="fill-rule:evenodd" />
      <circle
         d="m 70086.972,58800 c 0,103.262 -83.71,186.972 -186.972,186.972 -103.262,0 -186.972,-83.71 -186.972,-186.972 0,-103.262 83.71,-186.972 186.972,-186.972 103.262,0 186.972,83.71 186.972,186.972 z"
         sodipodi:ry="186.972"
         sodipodi:rx="186.972"
         sodipodi:cy="58800"
         sodipodi:cx="69900"
         id="circle214"
         r="186.972"
         cy="58800"
         cx="69900" />
      <circle
         d="m 69786.972,59100 c 0,103.262 -83.71,186.972 -186.972,186.972 -103.262,0 -186.972,-83.71 -186.972,-186.972 0,-103.262 83.71,-186.972 186.972,-186.972 103.262,0 186.972,83.71 186.972,186.972 z"
         sodipodi:ry="186.972"
         sodipodi:rx="186.972"
         sodipodi:cy="59100"
         sodipodi:cx="69600"
         id="circle216"
         r="186.972"
         cy="59100"
         cx="69600" />
      <circle
         d="m 69486.972,59400 c 0,103.262 -83.71,186.972 -186.972,186.972 -103.262,0 -186.972,-83.71 -186.972,-186.972 0,-103.262 83.71,-186.972 186.972,-186.972 103.262,0 186.972,83.71 186.972,186.972 z"
         sodipodi:ry="186.972"
         sodipodi:rx="186.972"
         sodipodi:cy="59400"
         sodipodi:cx="69300"
         id="circle218"
         r="186.972"
         cy="59400"
         cx="69300" />
      <circle
         d="m 69486.972,58800 c 0,103.262 -83.71,186.972 -186.972,186.972 -103.262,0 -186.972,-83.71 -186.972,-186.972 0,-103.262 83.71,-186.972 186.972,-186.972 103.262,0 186.972,83.71 186.972,186.972 z"
         sodipodi:ry="186.972"
         sodipodi:rx="186.972"
         sodipodi:cy="58800"
         sodipodi:cx="69300"
         id="circle220"
         r="186.972"
         cy="58800"
         cx="69300" />
      <circle
         d="m 70086.972,59400 c 0,103.262 -83.71,186.972 -186.972,186.972 -103.262,0 -186.972,-83.71 -186.972,-186.972 0,-103.262 83.71,-186.972 186.972,-186.972 103.262,0 186.972,83.71 186.972,186.972 z"
         sodipodi:ry="186.972"
         sodipodi:rx="186.972"
         sodipodi:cy="59400"
         sodipodi:cx="69900"
         id="circle222"
         r="186.972"
         cy="59400"
         cx="69900" />
      <polyline
         id="polyline224"
         points="65935,57729 65935,57316 66662,57316 66662,57729 65935,57729 "
         style="fill-rule:evenodd" />
      <polyline
         id="polyline226"
         points="65935,58713 65935,58300 66662,58300 66662,58713 65935,58713 "
         style="fill-rule:evenodd" />
      <polyline
         id="polyline228"
         points="65935,59501 65935,59088 66662,59088 66662,59501 65935,59501 "
         style="fill-rule:evenodd" />
      <polyline
         id="polyline230"
         points="65935,60485 65935,60072 66662,60072 66662,60485 65935,60485 "
         style="fill-rule:evenodd" />
      <circle
         d="m 65265.972,59786 c 0,146.892 -119.08,265.972 -265.972,265.972 -146.892,0 -265.972,-119.08 -265.972,-265.972 0,-146.892 119.08,-265.972 265.972,-265.972 146.892,0 265.972,119.08 265.972,265.972 z"
         sodipodi:ry="265.97198"
         sodipodi:rx="265.97198"
         sodipodi:cy="59786"
         sodipodi:cx="65000"
         id="circle232"
         r="265.97198"
         cy="59786"
         cx="65000" />
      <circle
         d="m 65856.972,59786 c 0,146.892 -119.08,265.972 -265.972,265.972 -146.892,0 -265.972,-119.08 -265.972,-265.972 0,-146.892 119.08,-265.972 265.972,-265.972 146.892,0 265.972,119.08 265.972,265.972 z"
         sodipodi:ry="265.97198"
         sodipodi:rx="265.97198"
         sodipodi:cy="59786"
         sodipodi:cx="65591"
         id="circle234"
         r="265.97198"
         cy="59786"
         cx="65591" />
      <circle
         d="m 65265.972,58014 c 0,146.892 -119.08,265.972 -265.972,265.972 -146.892,0 -265.972,-119.08 -265.972,-265.972 0,-146.892 119.08,-265.972 265.972,-265.972 146.892,0 265.972,119.08 265.972,265.972 z"
         sodipodi:ry="265.97198"
         sodipodi:rx="265.97198"
         sodipodi:cy="58014"
         sodipodi:cx="65000"
         id="circle236"
         r="265.97198"
         cy="58014"
         cx="65000" />
      <circle
         d="m 65856.972,58014 c 0,146.892 -119.08,265.972 -265.972,265.972 -146.892,0 -265.972,-119.08 -265.972,-265.972 0,-146.892 119.08,-265.972 265.972,-265.972 146.892,0 265.972,119.08 265.972,265.972 z"
         sodipodi:ry="265.97198"
         sodipodi:rx="265.97198"
         sodipodi:cy="58014"
         sodipodi:cx="65591"
         id="circle238"
         r="265.97198"
         cy="58014"
         cx="65591" />
    </g>
    <g
       transform="translate(-57474.066,-50786.058)"
       id="g240"
       style="fill:#000000;fill-opacity:1;stroke:#000000;stroke-width:100;stroke-linecap:round;stroke-linejoin:round;stroke-opacity:1">
      <path
         inkscape:connector-curvature="0"
         id="path242"
         d="m 77900,59200 0,450" />
      <path
         inkscape:connector-curvature="0"
         id="path244"
         d="m 77400,56500 500,500" />
      <path
         inkscape:connector-curvature="0"
         id="path246"
         d="m 77900,57000 0,2200" />
      <path
         inkscape:connector-curvature="0"
         id="path248"
         d="m 74100,56300 200,200" />
      <path
         inkscape:connector-curvature="0"
         id="path250"
         d="m 74100,56300 -600,-600" />
    </g>
    <g
       transform="translate(-57474.066,-50786.058)"
       id="g252"
       style="fill:#000000;fill-opacity:1;stroke:#000000;stroke-width:157.47999573;stroke-linecap:round;stroke-linejoin:round;stroke-opacity:1">
      <path
         inkscape:connector-curvature="0"
         id="path254"
         d="m 77100,55000 -600,-600" />
      <path
         inkscape:connector-curvature="0"
         id="path256"
         d="m 73800,54400 2700,0" />
      <path
         inkscape:connector-curvature="0"
         id="path258"
         d="m 73500,54700 300,-300" />
    </g>
    <g
       transform="translate(-57474.066,-50786.058)"
       id="g260"
       style="fill:#000000;fill-opacity:1;stroke:#000000;stroke-width:100;stroke-linecap:round;stroke-linejoin:round;stroke-opacity:1">
      <path
         inkscape:connector-curvature="0"
         id="path262"
         d="m 73500,55700 0,-1000" />
      <path
         inkscape:connector-curvature="0"
         id="path264"
         d="m 74300,56500 2500,0" />
      <path
         inkscape:connector-curvature="0"
         id="path266"
         d="m 76800,56500 600,0" />
    </g>
    <g
       transform="translate(-57474.066,-50786.058)"
       id="g268"
       style="fill:#000000;fill-opacity:1;stroke:#000000;stroke-width:157.47999573;stroke-linecap:round;stroke-linejoin:round;stroke-opacity:1">
      <path
         inkscape:connector-curvature="0"
         id="path270"
         d="m 78875,60100 425,0" />
      <path
         inkscape:connector-curvature="0"
         id="path272"
         d="m 78850,60125 25,-25" />
    </g>
    <g
       transform="translate(-57474.066,-50786.058)"
       id="g274"
       style="fill:#000000;fill-opacity:1;stroke:#000000;stroke-width:137.79499817;stroke-linecap:round;stroke-linejoin:round;stroke-opacity:1">
      <path
         inkscape:connector-curvature="0"
         id="path276"
         d="m 78375,60125 475,0" />
    </g>
    <g
       transform="translate(-57474.066,-50786.058)"
       id="g278"
       style="fill:#000000;fill-opacity:1;stroke:#000000;stroke-width:118.11000061;stroke-linecap:round;stroke-linejoin:round;stroke-opacity:1">
      <path
         inkscape:connector-curvature="0"
         id="path280"
         d="m 77900,59650 475,475" />
    </g>
    <g
       transform="translate(-57474.066,-50786.058)"
       id="g282"
       style="fill:#000000;fill-opacity:1;stroke:#000000;stroke-width:157.47999573;stroke-linecap:round;stroke-linejoin:round;stroke-opacity:1">
      <path
         inkscape:connector-curvature="0"
         id="path284"
         d="m 77100,55000 500,0" />
      <path
         inkscape:connector-curvature="0"
         id="path286"
         d="m 77600,55000 500,500" />
    </g>
    <g
       transform="translate(-57474.066,-50786.058)"
       id="g288"
       style="fill:#000000;fill-opacity:1;stroke:#000000;stroke-width:100;stroke-linecap:round;stroke-linejoin:round;stroke-opacity:1">
      <path
         inkscape:connector-curvature="0"
         id="path290"
         d="m 78100,58100 0,575" />
      <path
         inkscape:connector-curvature="0"
         id="path292"
         d="m 78100,56100 0,2000" />
    </g>
    <g
       transform="translate(-57474.066,-50786.058)"
       id="g294"
       style="fill:#000000;fill-opacity:1;stroke:#000000;stroke-width:157.47999573;stroke-linecap:round;stroke-linejoin:round;stroke-opacity:1">
      <path
         inkscape:connector-curvature="0"
         id="path296"
         d="m 78525,59100 775,0" />
    </g>
    <g
       transform="translate(-57474.066,-50786.058)"
       id="g298"
       style="fill:#000000;fill-opacity:1;stroke:#000000;stroke-width:118.11000061;stroke-linecap:round;stroke-linejoin:round;stroke-opacity:1">
      <path
         inkscape:connector-curvature="0"
         id="path300"
         d="m 78100,58675 425,425" />
    </g>
    <g
       transform="translate(-57474.066,-50786.058)"
       id="g302"
       style="fill:#000000;fill-opacity:1;stroke:#000000;stroke-width:100;stroke-linecap:round;stroke-linejoin:round;stroke-opacity:1">
      <path
         inkscape:connector-curvature="0"
         id="path304"
         d="m 79300,59100 -200,0" />
      <path
         inkscape:connector-curvature="0"
         id="path306"
         d="m 75225,55800 75,0" />
      <path
         inkscape:connector-curvature="0"
         id="path308"
         d="m 75300,55800 500,500" />
      <path
         inkscape:connector-curvature="0"
         id="path310"
         d="m 75800,56300 2100,0" />
      <path
         inkscape:connector-curvature="0"
         id="path312"
         d="m 77900,56300 200,-200" />
    </g>
    <g
       transform="translate(-57474.066,-50786.058)"
       id="g314"
       style="fill:#000000;fill-opacity:1;stroke:#000000;stroke-width:157.47999573;stroke-linecap:round;stroke-linejoin:round;stroke-opacity:1">
      <path
         inkscape:connector-curvature="0"
         id="path316"
         d="m 75100,55000 0,675" />
    </g>
    <g
       transform="translate(-57474.066,-50786.058)"
       id="g318"
       style="fill:#000000;fill-opacity:1;stroke:#000000;stroke-width:100;stroke-linecap:round;stroke-linejoin:round;stroke-opacity:1">
      <path
         inkscape:connector-curvature="0"
         id="path320"
         d="m 75100,55675 125,125" />
      <path
         inkscape:connector-curvature="0"
         id="path322"
         d="m 79300,59100 300,0" />
    </g>
    <g
       transform="translate(-57474.066,-50786.058)"
       id="g324"
       style="fill:#000000;fill-opacity:1;stroke:#000000;stroke-width:157.47999573;stroke-linecap:round;stroke-linejoin:round;stroke-opacity:1">
      <path
         inkscape:connector-curvature="0"
         id="path326"
         d="m 79600,59100 400,400" />
    </g>
    <g
       transform="translate(-57474.066,-50786.058)"
       id="g328"
       style="fill:#000000;fill-opacity:1;stroke:#000000;stroke-width:100;stroke-linecap:round;stroke-linejoin:round;stroke-opacity:1">
      <path
         inkscape:connector-curvature="0"
         id="path330"
         d="m 80000,59500 0,2100" />
      <path
         inkscape:connector-curvature="0"
         id="path332"
         d="m 80000,61600 -300,300" />
      <path
         inkscape:connector-curvature="0"
         id="path334"
         d="m 79700,61900 -1400,0" />
      <path
         inkscape:connector-curvature="0"
         id="path336"
         d="m 78300,61900 -500,-500" />
      <path
         inkscape:connector-curvature="0"
         id="path338"
         d="m 77800,61400 -1700,0" />
    </g>
    <g
       transform="translate(-57474.066,-50786.058)"
       id="g340"
       style="fill:#000000;fill-opacity:1;stroke:#000000;stroke-width:157.47999573;stroke-linecap:round;stroke-linejoin:round;stroke-opacity:1">
      <path
         inkscape:connector-curvature="0"
         id="path342"
         d="m 76100,61400 -1000,1000" />
      <path
         inkscape:connector-curvature="0"
         id="path344"
         d="m 74100,55000 1000,0" />
      <path
         inkscape:connector-curvature="0"
         id="path346"
         d="m 79300,58100 500,0" />
      <path
         inkscape:connector-curvature="0"
         id="path348"
         d="m 76800,61700 -700,700" />
    </g>
    <g
       transform="translate(-57474.066,-50786.058)"
       id="g350"
       style="fill:#000000;fill-opacity:1;stroke:#000000;stroke-width:100;stroke-linecap:round;stroke-linejoin:round;stroke-opacity:1">
      <path
         inkscape:connector-curvature="0"
         id="path352"
         d="m 77700,61700 -900,0" />
      <path
         inkscape:connector-curvature="0"
         id="path354"
         d="m 78300,62300 -600,-600" />
      <path
         inkscape:connector-curvature="0"
         id="path356"
         d="m 79800,62300 -1500,0" />
      <path
         inkscape:connector-curvature="0"
         id="path358"
         d="m 80300,61800 -500,500" />
      <path
         inkscape:connector-curvature="0"
         id="path360"
         d="m 80300,58600 0,3200" />
      <path
         inkscape:connector-curvature="0"
         id="path362"
         d="m 79800,58100 500,500" />
      <path
         inkscape:connector-curvature="0"
         id="path364"
         d="m 75975,55800 2925,0" />
    </g>
    <g
       transform="translate(-57474.066,-50786.058)"
       id="g366"
       style="fill:#000000;fill-opacity:1;stroke:#000000;stroke-width:157.47999573;stroke-linecap:round;stroke-linejoin:round;stroke-opacity:1">
      <path
         inkscape:connector-curvature="0"
         id="path368"
         d="m 79300,56200 0,900" />
    </g>
    <g
       transform="translate(-57474.066,-50786.058)"
       id="g370"
       style="fill:#000000;fill-opacity:1;stroke:#000000;stroke-width:118.11000061;stroke-linecap:round;stroke-linejoin:round;stroke-opacity:1">
      <path
         inkscape:connector-curvature="0"
         id="path372"
         d="m 78900,55800 400,400" />
    </g>
    <g
       transform="translate(-57474.066,-50786.058)"
       id="g374"
       style="fill:#000000;fill-opacity:1;stroke:#000000;stroke-width:157.47999573;stroke-linecap:round;stroke-linejoin:round;stroke-opacity:1">
      <path
         inkscape:connector-curvature="0"
         id="path376"
         d="m 76100,55000 0,675" />
    </g>
    <g
       transform="translate(-57474.066,-50786.058)"
       id="g378"
       style="fill:#000000;fill-opacity:1;stroke:#000000;stroke-width:100;stroke-linecap:round;stroke-linejoin:round;stroke-opacity:1">
      <path
         inkscape:connector-curvature="0"
         id="path380"
         d="m 76100,55675 -125,125" />
      <path
         inkscape:connector-curvature="0"
         id="path382"
         d="m 72100,57200 -100,0" />
      <path
         inkscape:connector-curvature="0"
         id="path384"
         d="m 71700,56900 -400,-400" />
      <path
         inkscape:connector-curvature="0"
         id="path386"
         d="m 71100,55300 -600,0" />
      <path
         inkscape:connector-curvature="0"
         id="path388"
         d="m 71300,56500 0,-1000" />
      <path
         inkscape:connector-curvature="0"
         id="path390"
         d="m 71300,55500 -200,-200" />
    </g>
    <g
       transform="translate(-57474.066,-50786.058)"
       id="g392"
       style="fill:#000000;fill-opacity:1;stroke:#000000;stroke-width:157.47999573;stroke-linecap:round;stroke-linejoin:round;stroke-opacity:1">
      <path
         inkscape:connector-curvature="0"
         id="path394"
         d="m 76100,59300 500,-500" />
    </g>
    <g
       transform="translate(-57474.066,-50786.058)"
       id="g396"
       style="fill:#000000;fill-opacity:1;stroke:#000000;stroke-width:100;stroke-linecap:round;stroke-linejoin:round;stroke-opacity:1">
      <path
         inkscape:connector-curvature="0"
         id="path398"
         d="m 76600,58800 0,-1200" />
      <path
         inkscape:connector-curvature="0"
         id="path400"
         d="m 76600,57600 -400,-400" />
      <path
         inkscape:connector-curvature="0"
         id="path402"
         d="m 76200,57200 -3800,0" />
      <path
         inkscape:connector-curvature="0"
         id="path404"
         d="m 76100,59400 0,-100" />
      <path
         inkscape:connector-curvature="0"
         id="path406"
         d="m 72400,57200 -300,0" />
      <path
         inkscape:connector-curvature="0"
         id="path408"
         d="m 70300,55500 0,400" />
      <path
         inkscape:connector-curvature="0"
         id="path410"
         d="m 70500,55300 -200,200" />
      <path
         inkscape:connector-curvature="0"
         id="path412"
         d="m 72000,57200 -300,-300" />
      <path
         inkscape:connector-curvature="0"
         id="path414"
         d="m 71050,60450 200,-200" />
      <path
         inkscape:connector-curvature="0"
         id="path416"
         d="m 71250,60250 0,-2400" />
      <path
         inkscape:connector-curvature="0"
         id="path418"
         d="m 71250,57850 -200,-200" />
      <path
         inkscape:connector-curvature="0"
         id="path420"
         d="m 70300,56800 0,100" />
      <path
         inkscape:connector-curvature="0"
         id="path422"
         d="m 69600,60500 100,100" />
      <path
         inkscape:connector-curvature="0"
         id="path424"
         d="m 69700,60600 1200,0" />
      <path
         inkscape:connector-curvature="0"
         id="path426"
         d="m 69600,60500 0,-416" />
      <path
         inkscape:connector-curvature="0"
         id="path428"
         d="m 70300,55900 0,900" />
      <path
         inkscape:connector-curvature="0"
         id="path430"
         d="m 71050,60450 -150,150" />
      <path
         inkscape:connector-curvature="0"
         id="path432"
         d="m 70300,56900 750,750" />
    </g>
    <g
       transform="translate(-57474.066,-50786.058)"
       id="g434"
       style="fill:#000000;fill-opacity:1;stroke:#000000;stroke-width:157.47999573;stroke-linecap:round;stroke-linejoin:round;stroke-opacity:1">
      <path
         inkscape:connector-curvature="0"
         id="path436"
         d="m 69800,55900 500,0" />
    </g>
    <g
       transform="translate(-57474.066,-50786.058)"
       id="g438"
       style="fill:#000000;fill-opacity:1;stroke:#000000;stroke-width:100;stroke-linecap:round;stroke-linejoin:round;stroke-opacity:1">
      <path
         inkscape:connector-curvature="0"
         id="path440"
         d="m 76100,59400 0,75" />
    </g>
    <g
       transform="translate(-57474.066,-50786.058)"
       id="g442"
       style="fill:#000000;fill-opacity:1;stroke:#000000;stroke-width:157.47999573;stroke-linecap:round;stroke-linejoin:round;stroke-opacity:1">
      <path
         inkscape:connector-curvature="0"
         id="path444"
         d="m 76100,59475 -1225,1225" />
      <path
         inkscape:connector-curvature="0"
         id="path446"
         d="m 70800,55900 0,825" />
    </g>
    <g
       transform="translate(-57474.066,-50786.058)"
       id="g448"
       style="fill:#000000;fill-opacity:1;stroke:#000000;stroke-width:100;stroke-linecap:round;stroke-linejoin:round;stroke-opacity:1">
      <path
         inkscape:connector-curvature="0"
         id="path450"
         d="m 70800,56725 812,812" />
      <path
         inkscape:connector-curvature="0"
         id="path452"
         d="m 76100,58000 0,-200" />
      <path
         inkscape:connector-curvature="0"
         id="path454"
         d="m 69403,60703 147,147" />
      <path
         inkscape:connector-curvature="0"
         id="path456"
         d="m 69550,60850 150,0" />
      <path
         inkscape:connector-curvature="0"
         id="path458"
         d="m 71050,60850 -1350,0" />
      <path
         inkscape:connector-curvature="0"
         id="path460"
         d="m 69403,60703 0,-619" />
      <path
         inkscape:connector-curvature="0"
         id="path462"
         d="m 71462,60437 -412,413" />
      <path
         inkscape:connector-curvature="0"
         id="path464"
         d="m 71462,60437 0,-2750" />
      <path
         inkscape:connector-curvature="0"
         id="path466"
         d="m 71675,57475 -63,62" />
      <path
         inkscape:connector-curvature="0"
         id="path468"
         d="m 71612,57537 -150,150" />
      <path
         inkscape:connector-curvature="0"
         id="path470"
         d="m 75775,57475 -4100,0" />
    </g>
    <g
       transform="translate(-57474.066,-50786.058)"
       id="g472"
       style="fill:#000000;fill-opacity:1;stroke:#000000;stroke-width:157.47999573;stroke-linecap:round;stroke-linejoin:round;stroke-opacity:1">
      <path
         inkscape:connector-curvature="0"
         id="path474"
         d="m 76100,57800 -325,-325" />
    </g>
    <g
       transform="translate(-57474.066,-50786.058)"
       id="g476"
       style="fill:#000000;fill-opacity:1;stroke:#000000;stroke-width:100;stroke-linecap:round;stroke-linejoin:round;stroke-opacity:1">
      <path
         inkscape:connector-curvature="0"
         id="path478"
         d="m 68616,58509 -507,0" />
      <path
         inkscape:connector-curvature="0"
         id="path480"
         d="m 68050,58450 0,-927" />
      <path
         inkscape:connector-curvature="0"
         id="path482"
         d="m 68109,58509 -59,-59" />
    </g>
    <g
       transform="translate(-57474.066,-50786.058)"
       id="g484"
       style="fill:#000000;fill-opacity:1;stroke:#000000;stroke-width:137.79499817;stroke-linecap:round;stroke-linejoin:round;stroke-opacity:1">
      <path
         inkscape:connector-curvature="0"
         id="path486"
         d="m 68200,57523 0,-523" />
      <path
         inkscape:connector-curvature="0"
         id="path488"
         d="m 66299,57523 1751,0" />
      <path
         inkscape:connector-curvature="0"
         id="path490"
         d="m 68050,57523 150,0" />
      <path
         inkscape:connector-curvature="0"
         id="path492"
         d="m 68200,57523 845,0" />
      <path
         inkscape:connector-curvature="0"
         id="path494"
         d="m 69045,57523 -36,36" />
    </g>
    <g
       transform="translate(-57474.066,-50786.058)"
       id="g496"
       style="fill:#000000;fill-opacity:1;stroke:#000000;stroke-width:157.47999573;stroke-linecap:round;stroke-linejoin:round;stroke-opacity:1">
      <path
         inkscape:connector-curvature="0"
         id="path498"
         d="m 71800,55900 0,-600" />
    </g>
    <g
       transform="translate(-57474.066,-50786.058)"
       id="g500"
       style="fill:#000000;fill-opacity:1;stroke:#000000;stroke-width:137.79499817;stroke-linecap:round;stroke-linejoin:round;stroke-opacity:1">
      <path
         inkscape:connector-curvature="0"
         id="path502"
         d="m 69300,57268 -291,291" />
      <path
         inkscape:connector-curvature="0"
         id="path504"
         d="m 69300,55350 0,1918" />
      <path
         inkscape:connector-curvature="0"
         id="path506"
         d="m 69550,55100 -250,250" />
    </g>
    <g
       transform="translate(-57474.066,-50786.058)"
       id="g508"
       style="fill:#000000;fill-opacity:1;stroke:#000000;stroke-width:100;stroke-linecap:round;stroke-linejoin:round;stroke-opacity:1">
      <path
         inkscape:connector-curvature="0"
         id="path510"
         d="m 71600,55100 -2050,0" />
      <path
         inkscape:connector-curvature="0"
         id="path512"
         d="m 71800,55300 -200,-200" />
      <path
         inkscape:connector-curvature="0"
         id="path514"
         d="m 69009,58116 0,-557" />
    </g>
    <g
       transform="translate(-57474.066,-50786.058)"
       id="g516"
       style="fill:#000000;fill-opacity:1;stroke:#000000;stroke-width:137.79499817;stroke-linecap:round;stroke-linejoin:round;stroke-opacity:1">
      <path
         inkscape:connector-curvature="0"
         id="path518"
         d="m 72400,59500 0,-300" />
      <path
         inkscape:connector-curvature="0"
         id="path520"
         d="m 72425,58300 0,875" />
      <path
         inkscape:connector-curvature="0"
         id="path522"
         d="m 72425,59175 -25,25" />
      <path
         inkscape:connector-curvature="0"
         id="path524"
         d="m 71900,60600 0,-900" />
      <path
         inkscape:connector-curvature="0"
         id="path526"
         d="m 67500,60450 1000,1000" />
      <path
         inkscape:connector-curvature="0"
         id="path528"
         d="m 68500,61450 2700,0" />
      <path
         inkscape:connector-curvature="0"
         id="path530"
         d="m 71200,61450 700,-700" />
      <path
         inkscape:connector-curvature="0"
         id="path532"
         d="m 71900,60750 0,-150" />
      <path
         inkscape:connector-curvature="0"
         id="path534"
         d="m 72400,59500 -300,0" />
      <path
         inkscape:connector-curvature="0"
         id="path536"
         d="m 67500,60450 0,-700" />
      <path
         inkscape:connector-curvature="0"
         id="path538"
         d="m 71900,59700 200,-200" />
    </g>
    <g
       transform="translate(-57474.066,-50786.058)"
       id="g540"
       style="fill:#000000;fill-opacity:1;stroke:#000000;stroke-width:100;stroke-linecap:round;stroke-linejoin:round;stroke-opacity:1">
      <path
         inkscape:connector-curvature="0"
         id="path542"
         d="m 72425,59475 -25,25" />
    </g>
    <g
       transform="translate(-57474.066,-50786.058)"
       id="g544"
       style="fill:#000000;fill-opacity:1;stroke:#000000;stroke-width:137.79499817;stroke-linecap:round;stroke-linejoin:round;stroke-opacity:1">
      <path
         inkscape:connector-curvature="0"
         id="path546"
         d="m 72400,59500 1600,0" />
    </g>
    <g
       transform="translate(-57474.066,-50786.058)"
       id="g548"
       style="fill:#000000;fill-opacity:1;stroke:#000000;stroke-width:100;stroke-linecap:round;stroke-linejoin:round;stroke-opacity:1">
      <path
         inkscape:connector-curvature="0"
         id="path550"
         d="m 74000,59500 100,-100" />
    </g>
    <g
       transform="translate(-57474.066,-50786.058)"
       id="g552"
       style="fill:#000000;fill-opacity:1;stroke:#000000;stroke-width:137.79499817;stroke-linecap:round;stroke-linejoin:round;stroke-opacity:1">
      <path
         inkscape:connector-curvature="0"
         id="path554"
         d="m 74100,59400 0,1275" />
    </g>
    <g
       transform="translate(-57474.066,-50786.058)"
       id="g556"
       style="fill:#000000;fill-opacity:1;stroke:#000000;stroke-width:100;stroke-linecap:round;stroke-linejoin:round;stroke-opacity:1">
      <path
         inkscape:connector-curvature="0"
         id="path558"
         d="m 74100,60675 25,25" />
      <path
         inkscape:connector-curvature="0"
         id="path560"
         d="m 68616,59297 787,0" />
      <path
         inkscape:connector-curvature="0"
         id="path562"
         d="m 69403,59297 197,-197" />
    </g>
    <g
       transform="translate(-57474.066,-50786.058)"
       id="g564"
       style="fill:#000000;fill-opacity:1;stroke:#000000;stroke-width:157.47999573;stroke-linecap:round;stroke-linejoin:round;stroke-opacity:1">
      <path
         inkscape:connector-curvature="0"
         id="path566"
         d="m 72400,61500 200,0" />
      <path
         inkscape:connector-curvature="0"
         id="path568"
         d="m 72600,61500 1900,0" />
      <path
         inkscape:connector-curvature="0"
         id="path570"
         d="m 72400,61300 0,200" />
      <path
         inkscape:connector-curvature="0"
         id="path572"
         d="m 72400,61500 0,200" />
      <path
         inkscape:connector-curvature="0"
         id="path574"
         d="m 72400,60125 0,1175" />
      <path
         inkscape:connector-curvature="0"
         id="path576"
         d="m 66299,61099 751,751" />
      <path
         inkscape:connector-curvature="0"
         id="path578"
         d="m 67050,61850 5200,0" />
      <path
         inkscape:connector-curvature="0"
         id="path580"
         d="m 66299,61099 0,-820" />
      <path
         inkscape:connector-curvature="0"
         id="path582"
         d="m 72400,61700 -150,150" />
      <path
         inkscape:connector-curvature="0"
         id="path584"
         d="m 65591,59786 0,230" />
      <path
         inkscape:connector-curvature="0"
         id="path586"
         d="m 65591,60016 263,263" />
      <path
         inkscape:connector-curvature="0"
         id="path588"
         d="m 65000,59786 0,214" />
      <path
         inkscape:connector-curvature="0"
         id="path590"
         d="m 65000,60000 279,279" />
      <path
         inkscape:connector-curvature="0"
         id="path592"
         d="m 65000,58014 0,-1789" />
      <path
         inkscape:connector-curvature="0"
         id="path594"
         d="m 65000,56225 1500,-1500" />
      <path
         inkscape:connector-curvature="0"
         id="path596"
         d="m 65591,58014 0,-1855" />
      <path
         inkscape:connector-curvature="0"
         id="path598"
         d="m 65591,56159 1434,-1434" />
      <path
         inkscape:connector-curvature="0"
         id="path600"
         d="m 64725,58925 866,0" />
      <path
         inkscape:connector-curvature="0"
         id="path602"
         d="m 65600,58900 -9,0" />
      <path
         inkscape:connector-curvature="0"
         id="path604"
         d="m 65600,58916 0,-16" />
      <path
         inkscape:connector-curvature="0"
         id="path606"
         d="m 65591,58925 9,-9" />
      <path
         inkscape:connector-curvature="0"
         id="path608"
         d="m 64700,58925 25,0" />
      <path
         inkscape:connector-curvature="0"
         id="path610"
         d="m 64725,58925 200,0" />
      <path
         inkscape:connector-curvature="0"
         id="path612"
         d="m 64925,58925 75,-75" />
      <path
         inkscape:connector-curvature="0"
         id="path614"
         d="m 65000,58014 0,836" />
      <path
         inkscape:connector-curvature="0"
         id="path616"
         d="m 65000,58850 0,936" />
      <path
         inkscape:connector-curvature="0"
         id="path618"
         d="m 65591,58014 0,886" />
      <path
         inkscape:connector-curvature="0"
         id="path620"
         d="m 65591,58900 0,886" />
      <path
         inkscape:connector-curvature="0"
         id="path622"
         d="m 66299,60279 -445,0" />
      <path
         inkscape:connector-curvature="0"
         id="path624"
         d="m 65854,60279 -575,0" />
      <path
         inkscape:connector-curvature="0"
         id="path626"
         d="m 65279,60279 -425,0" />
      <path
         inkscape:connector-curvature="0"
         id="path628"
         d="m 64854,60279 -154,-154" />
      <path
         inkscape:connector-curvature="0"
         id="path630"
         d="m 64700,60125 0,-1200" />
      <path
         inkscape:connector-curvature="0"
         id="path632"
         d="m 65950,54725 550,0" />
      <path
         inkscape:connector-curvature="0"
         id="path634"
         d="m 64700,55975 1250,-1250" />
      <path
         inkscape:connector-curvature="0"
         id="path636"
         d="m 64700,58925 0,-2950" />
      <path
         inkscape:connector-curvature="0"
         id="path638"
         d="m 66500,54725 525,0" />
      <path
         inkscape:connector-curvature="0"
         id="path640"
         d="m 67025,54725 2500,0" />
      <path
         inkscape:connector-curvature="0"
         id="path642"
         d="m 72400,60125 0,-325" />
    </g>
    <g
       transform="translate(-57474.066,-50786.058)"
       id="g644"
       style="fill:#000000;fill-opacity:1;stroke:#000000;stroke-width:118.11000061;stroke-linecap:round;stroke-linejoin:round;stroke-opacity:1">
      <path
         inkscape:connector-curvature="0"
         id="path646"
         d="m 71650,60650 0,-2600" />
      <path
         inkscape:connector-curvature="0"
         id="path648"
         d="m 71650,58050 275,-275" />
      <path
         inkscape:connector-curvature="0"
         id="path650"
         d="m 71925,57775 700,0" />
      <path
         inkscape:connector-curvature="0"
         id="path652"
         d="m 72625,57775 175,175" />
      <path
         inkscape:connector-curvature="0"
         id="path654"
         d="m 72800,57950 0,150" />
    </g>
    <g
       transform="translate(-57474.066,-50786.058)"
       id="g656"
       style="fill:#000000;fill-opacity:1;stroke:#000000;stroke-width:137.79499817;stroke-linecap:round;stroke-linejoin:round;stroke-opacity:1">
      <path
         inkscape:connector-curvature="0"
         id="path658"
         d="m 71050,61150 100,0" />
      <path
         inkscape:connector-curvature="0"
         id="path660"
         d="m 74500,59900 100,-100" />
      <path
         inkscape:connector-curvature="0"
         id="path662"
         d="m 74600,59800 0,-800" />
      <path
         inkscape:connector-curvature="0"
         id="path664"
         d="m 74600,59000 -100,-100" />
      <path
         inkscape:connector-curvature="0"
         id="path666"
         d="m 74500,58900 -700,0" />
      <path
         inkscape:connector-curvature="0"
         id="path668"
         d="m 73800,58900 -300,300" />
      <path
         inkscape:connector-curvature="0"
         id="path670"
         d="m 73500,59200 -500,0" />
      <path
         inkscape:connector-curvature="0"
         id="path672"
         d="m 73000,59200 -200,-200" />
      <path
         inkscape:connector-curvature="0"
         id="path674"
         d="m 72800,59000 0,-900" />
      <path
         inkscape:connector-curvature="0"
         id="path676"
         d="m 74500,59900 0,1600" />
      <path
         inkscape:connector-curvature="0"
         id="path678"
         d="m 68750,61150 -600,-600" />
      <path
         inkscape:connector-curvature="0"
         id="path680"
         d="m 71050,61150 -2300,0" />
    </g>
    <g
       transform="translate(-57474.066,-50786.058)"
       id="g682"
       style="fill:#000000;fill-opacity:1;stroke:#000000;stroke-width:100;stroke-linecap:round;stroke-linejoin:round;stroke-opacity:1">
      <path
         inkscape:connector-curvature="0"
         id="path684"
         d="m 68150,59297 0,1253" />
    </g>
    <g
       transform="translate(-57474.066,-50786.058)"
       id="g686"
       style="fill:#000000;fill-opacity:1;stroke:#000000;stroke-width:118.11000061;stroke-linecap:round;stroke-linejoin:round;stroke-opacity:1">
      <path
         inkscape:connector-curvature="0"
         id="path688"
         d="m 71150,61150 500,-500" />
    </g>
    <g
       transform="translate(-57474.066,-50786.058)"
       id="g690"
       style="fill:#000000;fill-opacity:1;stroke:#000000;stroke-width:137.79499817;stroke-linecap:round;stroke-linejoin:round;stroke-opacity:1">
      <path
         inkscape:connector-curvature="0"
         id="path692"
         d="m 69525,54725 2300,0" />
      <path
         inkscape:connector-curvature="0"
         id="path694"
         d="m 71825,54725 325,325" />
      <path
         inkscape:connector-curvature="0"
         id="path696"
         d="m 72450,55350 -300,-300" />
      <path
         inkscape:connector-curvature="0"
         id="path698"
         d="m 77200,56900 450,450" />
      <path
         inkscape:connector-curvature="0"
         id="path700"
         d="m 77650,57350 0,1500" />
      <path
         inkscape:connector-curvature="0"
         id="path702"
         d="m 77650,58850 -550,550" />
      <path
         inkscape:connector-curvature="0"
         id="path704"
         d="m 74000,56900 2600,0" />
      <path
         inkscape:connector-curvature="0"
         id="path706"
         d="m 72450,55350 1550,1550" />
      <path
         inkscape:connector-curvature="0"
         id="path708"
         d="m 76600,56900 600,0" />
      <path
         inkscape:connector-curvature="0"
         id="path710"
         d="m 68800,55450 0,450" />
      <path
         inkscape:connector-curvature="0"
         id="path712"
         d="m 69525,54725 -325,325" />
      <path
         inkscape:connector-curvature="0"
         id="path714"
         d="m 68800,55450 400,-400" />
      <path
         inkscape:connector-curvature="0"
         id="path716"
         d="m 69500,54750 25,-25" />
      <path
         inkscape:connector-curvature="0"
         id="path718"
         d="m 68800,55900 0,1100" />
    </g>
    <g
       transform="translate(-57474.066,-50786.058)"
       id="g720"
       style="fill:#000000;fill-opacity:1;stroke:#000000;stroke-width:100;stroke-linecap:round;stroke-linejoin:round;stroke-opacity:1">
      <path
         inkscape:connector-curvature="0"
         id="path722"
         d="m 68150,59297 0,3" />
      <path
         inkscape:connector-curvature="0"
         id="path724"
         d="m 68150,59300 0,-3" />
    </g>
    <g
       transform="translate(-57474.066,-50786.058)"
       id="g726"
       style="fill:#000000;fill-opacity:1;stroke:#000000;stroke-width:137.79499817;stroke-linecap:round;stroke-linejoin:round;stroke-opacity:1">
      <path
         inkscape:connector-curvature="0"
         id="path728"
         d="m 72400,60100 0,25" />
    </g>
    <g
       transform="translate(-57474.066,-50786.058)"
       id="g730"
       style="fill:#000000;fill-opacity:1;stroke:#000000;stroke-width:100;stroke-linecap:round;stroke-linejoin:round;stroke-opacity:1">
      <path
         inkscape:connector-curvature="0"
         id="path732"
         d="m 68616,59297 -466,0" />
      <path
         inkscape:connector-curvature="0"
         id="path734"
         d="m 68150,59297 -1147,0" />
    </g>
    <g
       transform="translate(-57474.066,-50786.058)"
       id="g736"
       style="fill:#000000;fill-opacity:1;stroke:#000000;stroke-width:137.79499817;stroke-linecap:round;stroke-linejoin:round;stroke-opacity:1">
      <path
         inkscape:connector-curvature="0"
         id="path738"
         d="m 66771,60279 -472,0" />
      <path
         inkscape:connector-curvature="0"
         id="path740"
         d="m 66900,60150 -129,129" />
      <path
         inkscape:connector-curvature="0"
         id="path742"
         d="m 66900,59400 0,750" />
    </g>
    <g
       transform="translate(-57474.066,-50786.058)"
       id="g744"
       style="fill:#000000;fill-opacity:1;stroke:#000000;stroke-width:100;stroke-linecap:round;stroke-linejoin:round;stroke-opacity:1">
      <path
         inkscape:connector-curvature="0"
         id="path746"
         d="m 67003,59297 -103,103" />
    </g>
    <g
       transform="translate(-57474.066,-50786.058)"
       id="g748"
       style="fill:#000000;fill-opacity:1;stroke:#000000;stroke-width:157.47999573;stroke-linecap:round;stroke-linejoin:round;stroke-opacity:1">
      <path
         inkscape:connector-curvature="0"
         id="path750"
         d="m 77100,59500 -2000,2000" />
      <path
         inkscape:connector-curvature="0"
         id="path752"
         d="m 75100,61500 -600,0" />
    </g>
    <g
       transform="translate(-57474.066,-50786.058)"
       id="g754"
       style="fill:#000000;fill-opacity:1;stroke:#000000;stroke-width:100;stroke-linecap:round;stroke-linejoin:round;stroke-opacity:1">
      <path
         inkscape:connector-curvature="0"
         id="path756"
         d="m 77100,59500 0,-100" />
      <path
         inkscape:connector-curvature="0"
         id="path758"
         d="m 68616,59100 -2122,0" />
      <path
         inkscape:connector-curvature="0"
         id="path760"
         d="m 66494,59100 -195,195" />
      <path
         inkscape:connector-curvature="0"
         id="path762"
         d="m 68616,58706 -860,0" />
      <path
         inkscape:connector-curvature="0"
         id="path764"
         d="m 67756,58706 -256,-256" />
      <path
         inkscape:connector-curvature="0"
         id="path766"
         d="m 67050,58903 -147,0" />
      <path
         inkscape:connector-curvature="0"
         id="path768"
         d="m 66507,58507 -208,0" />
      <path
         inkscape:connector-curvature="0"
         id="path770"
         d="m 66903,58903 -396,-396" />
      <path
         inkscape:connector-curvature="0"
         id="path772"
         d="m 67753,58903 -703,0" />
      <path
         inkscape:connector-curvature="0"
         id="path774"
         d="m 67050,58903 3,0" />
      <path
         inkscape:connector-curvature="0"
         id="path776"
         d="m 68616,58903 -863,0" />
      <path
         inkscape:connector-curvature="0"
         id="path778"
         d="m 75100,58000 0,200" />
      <path
         inkscape:connector-curvature="0"
         id="path780"
         d="m 73425,58550 -250,-250" />
      <path
         inkscape:connector-curvature="0"
         id="path782"
         d="m 74750,58550 -1325,0" />
    </g>
    <g
       transform="translate(-57474.066,-50786.058)"
       id="g784"
       style="fill:#000000;fill-opacity:1;stroke:#000000;stroke-width:157.47999573;stroke-linecap:round;stroke-linejoin:round;stroke-opacity:1">
      <path
         inkscape:connector-curvature="0"
         id="path786"
         d="m 75100,58200 -350,350" />
    </g>
    <g
       transform="translate(-57474.066,-50786.058)"
       id="g788"
       style="fill:#000000;fill-opacity:1;stroke:#000000;stroke-width:59.05509949;stroke-linecap:round;stroke-linejoin:round;stroke-opacity:1">
      <polyline
         id="polyline790"
         points="65046,58049 65005,58090 65000,58084 64994,58090 64923,58019 64929,58014 64923,58008 64994,57937 65000,57943 65005,57937 65042,57974 65046,58049 "
         style="fill-rule:evenodd" />
    </g>
    <g
       transform="translate(-57474.066,-50786.058)"
       id="g792"
       style="fill:#000000;fill-opacity:0;stroke:#000000;stroke-width:100;stroke-linecap:round;stroke-linejoin:round;stroke-opacity:1">
      <polyline
         id="polyline794"
         points="65046,58049 65005,58090 65000,58084 64994,58090 64923,58019 64929,58014 64923,58008 64994,57937 65000,57943 65005,57937 65042,57974 65046,58049 "
         fill="none;" />
    </g>
    <g
       transform="translate(-57474.066,-50786.058)"
       id="g796"
       style="fill:#000000;fill-opacity:1;stroke:#000000;stroke-width:59.05509949;stroke-linecap:round;stroke-linejoin:round;stroke-opacity:1">
      <polyline
         id="polyline798"
         points="65046,59821 65005,59862 65000,59856 64994,59862 64923,59791 64929,59786 64923,59780 64994,59709 65000,59715 65005,59709 65042,59746 65046,59821 "
         style="fill-rule:evenodd" />
    </g>
    <g
       transform="translate(-57474.066,-50786.058)"
       id="g800"
       style="fill:#000000;fill-opacity:0;stroke:#000000;stroke-width:100;stroke-linecap:round;stroke-linejoin:round;stroke-opacity:1">
      <polyline
         id="polyline802"
         points="65046,59821 65005,59862 65000,59856 64994,59862 64923,59791 64929,59786 64923,59780 64994,59709 65000,59715 65005,59709 65042,59746 65046,59821 "
         fill="none;" />
    </g>
    <g
       transform="translate(-57474.066,-50786.058)"
       id="g804"
       style="fill:#000000;fill-opacity:1;stroke:#000000;stroke-width:59.05509949;stroke-linecap:round;stroke-linejoin:round;stroke-opacity:1">
      <polyline
         id="polyline806"
         points="65667,58019 65596,58090 65591,58084 65585,58090 65548,58053 65544,57978 65585,57937 65591,57943 65596,57937 65667,58008 65661,58014 65667,58019 "
         style="fill-rule:evenodd" />
    </g>
    <g
       transform="translate(-57474.066,-50786.058)"
       id="g808"
       style="fill:#000000;fill-opacity:0;stroke:#000000;stroke-width:100;stroke-linecap:round;stroke-linejoin:round;stroke-opacity:1">
      <polyline
         id="polyline810"
         points="65667,58019 65596,58090 65591,58084 65585,58090 65548,58053 65544,57978 65585,57937 65591,57943 65596,57937 65667,58008 65661,58014 65667,58019 "
         fill="none;" />
    </g>
    <g
       transform="translate(-57474.066,-50786.058)"
       id="g812"
       style="fill:#000000;fill-opacity:1;stroke:#000000;stroke-width:59.05509949;stroke-linecap:round;stroke-linejoin:round;stroke-opacity:1">
      <polyline
         id="polyline814"
         points="65667,59791 65596,59862 65591,59856 65585,59862 65548,59825 65544,59750 65585,59709 65591,59715 65596,59709 65667,59780 65661,59786 65667,59791 "
         style="fill-rule:evenodd" />
    </g>
    <g
       transform="translate(-57474.066,-50786.058)"
       id="g816"
       style="fill:#000000;fill-opacity:0;stroke:#000000;stroke-width:100;stroke-linecap:round;stroke-linejoin:round;stroke-opacity:1">
      <polyline
         id="polyline818"
         points="65667,59791 65596,59862 65591,59856 65585,59862 65548,59825 65544,59750 65585,59709 65591,59715 65596,59709 65667,59780 65661,59786 65667,59791 "
         fill="none;" />
    </g>
    <g
       transform="translate(-57474.066,-50786.058)"
       id="g820"
       style="fill:#000000;fill-opacity:1;stroke:#000000;stroke-width:59.05509949;stroke-linecap:round;stroke-linejoin:round;stroke-opacity:1">
      <polyline
         id="polyline822"
         points="65797,58901 65746,58952 65717,59021 65717,59096 65717,59252 65671,59235 65454,59246 65305,59308 65295,59345 65285,59308 65080,59235 64863,59246 64757,59290 64757,58506 64919,58564 65136,58553 65285,58491 65295,58454 65305,58491 65510,58564 65717,58553 65717,58780 65746,58849 65797,58901 "
         style="fill-rule:evenodd" />
    </g>
    <g
       transform="translate(-57474.066,-50786.058)"
       id="g824"
       style="fill:#000000;fill-opacity:0;stroke:#000000;stroke-width:100;stroke-linecap:round;stroke-linejoin:round;stroke-opacity:1">
      <polyline
         id="polyline826"
         points="65797,58901 65746,58952 65717,59021 65717,59096 65717,59252 65671,59235 65454,59246 65305,59308 65295,59345 65285,59308 65080,59235 64863,59246 64757,59290 64757,58506 64919,58564 65136,58553 65285,58491 65295,58454 65305,58491 65510,58564 65717,58553 65717,58780 65746,58849 65797,58901 "
         fill="none;" />
    </g>
    <g
       transform="translate(-57474.066,-50786.058)"
       id="g828"
       style="fill:#000000;fill-opacity:1;stroke:#000000;stroke-width:59.05509949;stroke-linecap:round;stroke-linejoin:round;stroke-opacity:1">
      <polyline
         id="polyline830"
         points="71643,60643 71093,61193 68606,61193 67756,60343 67756,60237 67937,60237 68006,60209 68059,60156 68087,60087 68087,60012 68087,59412 68059,59343 68053,59337 68169,59337 68169,59347 68202,59347 68177,59367 68221,59473 68226,59478 68223,59494 68241,59584 68246,59592 68241,59600 68223,59691 68241,59781 68293,59858 68369,59909 68460,59927 68771,59927 68772,59927 68772,59928 68772,60239 68790,60330 68841,60406 68918,60458 69009,60476 69099,60458 69107,60453 69115,60458 69165,60468 69165,60703 69183,60794 69234,60871 69381,61018 69381,61018 69458,61069 69550,61087 69700,61087 71050,61087 71050,61087 71141,61069 71141,61069 71218,61018 71630,60605 71630,60605 71643,60586 71643,60600 71643,60643 "
         style="fill-rule:evenodd" />
    </g>
    <g
       transform="translate(-57474.066,-50786.058)"
       id="g832"
       style="fill:#000000;fill-opacity:0;stroke:#000000;stroke-width:100;stroke-linecap:round;stroke-linejoin:round;stroke-opacity:1">
      <polyline
         id="polyline834"
         points="71643,60643 71093,61193 68606,61193 67756,60343 67756,60237 67937,60237 68006,60209 68059,60156 68087,60087 68087,60012 68087,59412 68059,59343 68053,59337 68169,59337 68169,59347 68202,59347 68177,59367 68221,59473 68226,59478 68223,59494 68241,59584 68246,59592 68241,59600 68223,59691 68241,59781 68293,59858 68369,59909 68460,59927 68771,59927 68772,59927 68772,59928 68772,60239 68790,60330 68841,60406 68918,60458 69009,60476 69099,60458 69107,60453 69115,60458 69165,60468 69165,60703 69183,60794 69234,60871 69381,61018 69381,61018 69458,61069 69550,61087 69700,61087 71050,61087 71050,61087 71141,61069 71141,61069 71218,61018 71630,60605 71630,60605 71643,60586 71643,60600 71643,60643 "
         fill="none;" />
    </g>
    <g
       transform="translate(-57474.066,-50786.058)"
       id="g836"
       style="fill:#000000;fill-opacity:1;stroke:#000000;stroke-width:59.05509949;stroke-linecap:round;stroke-linejoin:round;stroke-opacity:1">
      <polyline
         id="polyline838"
         points="79762,60700 79759,60693 79706,60640 79637,60612 79562,60612 78962,60612 78893,60640 78840,60693 78812,60762 78812,60837 78812,61437 78840,61506 78893,61559 78962,61587 79037,61587 79637,61587 79703,61560 79601,61662 78398,61662 77968,61231 77891,61180 77800,61162 77629,61162 77629,59475 77618,59267 77560,59127 77467,59102 77397,59173 77397,59032 77372,58939 77175,58870 76967,58881 76827,58939 76802,59032 77100,59329 77397,59032 77397,59173 77170,59400 77467,59697 77560,59672 77629,59475 77629,61162 77397,61162 77397,59767 77100,59470 77029,59541 77029,59400 76732,59102 76639,59127 76570,59324 76581,59532 76639,59672 76732,59697 77029,59400 77029,59541 76802,59767 76827,59860 77024,59929 77232,59918 77372,59860 77397,59767 77397,61162 76100,61162 76008,61180 75931,61231 75216,61947 75192,61937 75008,61937 74838,62007 74707,62137 74637,62307 74637,62491 74707,62661 74837,62792 74838,62792 74523,62792 74534,62781 74562,62712 74562,62637 74562,62087 74534,62018 74481,61965 74412,61937 74337,61937 73787,61937 73718,61965 73665,62018 73637,62087 73637,62162 73637,62712 73665,62781 73676,62792 72875,62792 72875,59974 72875,59912 72812,59850 72450,59850 72450,60112 72512,60175 72575,60175 72674,60175 72766,60136 72836,60066 72875,59974 72875,62792 72571,62792 72571,61758 66942,61758 66942,60564 66942,60465 66942,60391 66880,60329 66349,60329 66349,60702 66411,60765 66742,60765 66834,60726 66904,60656 66942,60564 66942,61758 66878,61758 66878,62792 66249,62792 64757,62792 64757,60278 64919,60336 65136,60325 65285,60263 65295,60226 65305,60263 65510,60336 65655,60328 65655,60329 65717,60329 65655,60391 65655,60465 65655,60564 65693,60656 65763,60726 65855,60765 66186,60765 66249,60702 66249,60329 66241,60329 66241,60229 66249,60229 66249,59855 66186,59793 66137,59793 66133,59718 66729,59718 66798,59690 66851,59637 66880,59568 66880,59493 66880,59337 66946,59337 66940,59343 66912,59412 66912,59487 66912,59920 66904,59901 66834,59831 66742,59793 66411,59793 66349,59855 66349,60229 66880,60229 66942,60166 66942,60158 66993,60209 67062,60237 67137,60237 67243,60237 67243,60449 67243,60450 67259,60531 67262,60548 67318,60631 68318,61631 68318,61631 68401,61687 68401,61687 68500,61706 71199,61706 71200,61706 71200,61706 71281,61690 71298,61687 71298,61687 71381,61631 72081,60931 72081,60931 72081,60931 72118,60875 72137,60848 72137,60848 72156,60750 72156,60750 72156,60749 72156,60600 72156,60175 72224,60175 72287,60175 72350,60112 72350,59850 72342,59850 72342,59756 72400,59756 73802,59756 73837,59792 73843,59794 73843,60266 73790,60318 73762,60387 73762,60462 73762,61012 73790,61081 73843,61134 73912,61162 73987,61162 74337,61162 74406,61134 74459,61081 74487,61012 74487,60937 74487,60387 74459,60318 74406,60265 74356,60245 74356,59794 74361,59792 74492,59662 74562,59492 74562,59308 74492,59138 74362,59007 74192,58937 74008,58937 73838,59007 73707,59137 73663,59243 72812,59243 72812,59037 72784,58968 72731,58915 72681,58895 72681,58744 72706,58734 72759,58681 72787,58612 72787,58537 72787,57987 72759,57918 72706,57865 72637,57837 72562,57837 72212,57837 72143,57865 72090,57918 72062,57987 72062,58062 72062,58612 72090,58681 72143,58734 72168,58744 72168,58887 72137,58887 72068,58915 72015,58968 71987,59037 71987,59112 71987,59272 71918,59318 71918,59318 71718,59518 71699,59546 71699,57786 71773,57712 73637,57712 73637,57762 73637,58312 73537,58312 73537,57987 73509,57918 73456,57865 73387,57837 73312,57837 72962,57837 72893,57865 72840,57918 72812,57987 72812,58062 72812,58612 72840,58681 72893,58734 72962,58762 73037,58762 73323,58762 73333,58769 73334,58769 73425,58787 74750,58787 74750,58787 74841,58769 74841,58769 74918,58718 75173,58462 75191,58462 75361,58392 75492,58262 75562,58092 75562,57908 75492,57738 75467,57712 75676,57712 75705,57742 75637,57907 75637,58091 75707,58261 75837,58392 76007,58462 76191,58462 76361,58392 76362,58392 76362,58701 76126,58937 76008,58937 75838,59007 75707,59137 75637,59307 75637,59491 75669,59569 75562,59675 75562,59308 75492,59138 75362,59007 75192,58937 75008,58937 74838,59007 74707,59137 74637,59307 74637,59491 74707,59661 74837,59792 75007,59862 75191,59862 75361,59792 75492,59662 75562,59492 75562,59308 75562,59675 75001,60237 74662,60237 74593,60265 74540,60318 74512,60387 74512,60462 74512,61012 74540,61081 74593,61134 74662,61162 74737,61162 75087,61162 75156,61134 75209,61081 75237,61012 75237,60937 75237,60673 76048,59862 76191,59862 76361,59792 76492,59662 76562,59492 76562,59308 76523,59212 76768,58968 76768,58968 76819,58891 76837,58800 76837,58800 76837,58392 77007,58462 77191,58462 77361,58392 77492,58262 77562,58092 77562,57908 77492,57738 77362,57607 77192,57537 77008,57537 76838,57607 76837,57607 76837,57600 76819,57509 76819,57508 76799,57478 76768,57431 76368,57031 76291,56980 76200,56962 72400,56962 72100,56962 72098,56962 71868,56731 71868,56731 71537,56401 71537,56319 71702,56387 71896,56387 72075,56313 72213,56176 72287,55997 72287,55803 72213,55624 72076,55486 72037,55470 72037,55300 72019,55208 71968,55131 71968,55131 71768,54931 71691,54880 71600,54862 69645,54862 69550,54843 69451,54862 69368,54918 69118,55168 69062,55251 69059,55268 69043,55350 68912,55350 68850,55412 68850,55850 68857,55850 68857,55950 68850,55950 68850,56387 68912,56450 69043,56450 69043,56553 68974,56525 68912,56525 68850,56587 68850,56950 68857,56950 68857,57050 68850,57050 68850,57057 68750,57057 68750,57050 68742,57050 68742,56950 68750,56950 68750,56587 68750,56387 68750,55950 68750,55850 68750,55412 68687,55350 68450,55350 68358,55388 68288,55458 68250,55550 68250,55649 68250,55787 68312,55850 68750,55850 68750,55950 68312,55950 68250,56012 68250,56150 68250,56249 68288,56341 68358,56411 68450,56450 68687,56450 68750,56387 68750,56587 68687,56525 68625,56525 68533,56563 68463,56633 68458,56643 68431,56615 68362,56587 68287,56587 68037,56587 67968,56615 67915,56668 67887,56737 67887,56812 67887,57262 67888,57266 66880,57266 66880,57249 66851,57180 66798,57127 66729,57099 66655,57099 65868,57099 65799,57127 65746,57180 65717,57249 65717,57324 65717,57480 65671,57463 65454,57474 65305,57536 65295,57573 65285,57536 65080,57463 64863,57474 64757,57518 64757,54332 73490,54332 73311,54511 73253,54598 73233,54700 73253,54801 73262,54814 73262,55700 73280,55791 73331,55868 73931,56468 73931,56468 73931,56468 74131,56668 74131,56668 74208,56719 74300,56737 76800,56737 77301,56737 77662,57098 77662,59200 77662,59604 77653,59650 77671,59744 77725,59824 78165,60264 78193,60306 78276,60362 78375,60381 78800,60381 78850,60391 78893,60382 79023,60513 79202,60587 79396,60587 79575,60513 79713,60376 79762,60258 79762,60700 "
         style="fill-rule:evenodd" />
    </g>
    <g
       transform="translate(-57474.066,-50786.058)"
       id="g840"
       style="fill:#000000;fill-opacity:0;stroke:#000000;stroke-width:100;stroke-linecap:round;stroke-linejoin:round;stroke-opacity:1">
      <polyline
         id="polyline842"
         points="79762,60700 79759,60693 79706,60640 79637,60612 79562,60612 78962,60612 78893,60640 78840,60693 78812,60762 78812,60837 78812,61437 78840,61506 78893,61559 78962,61587 79037,61587 79637,61587 79703,61560 79601,61662 78398,61662 77968,61231 77891,61180 77800,61162 77629,61162 77629,59475 77618,59267 77560,59127 77467,59102 77397,59173 77397,59032 77372,58939 77175,58870 76967,58881 76827,58939 76802,59032 77100,59329 77397,59032 77397,59173 77170,59400 77467,59697 77560,59672 77629,59475 77629,61162 77397,61162 77397,59767 77100,59470 77029,59541 77029,59400 76732,59102 76639,59127 76570,59324 76581,59532 76639,59672 76732,59697 77029,59400 77029,59541 76802,59767 76827,59860 77024,59929 77232,59918 77372,59860 77397,59767 77397,61162 76100,61162 76008,61180 75931,61231 75216,61947 75192,61937 75008,61937 74838,62007 74707,62137 74637,62307 74637,62491 74707,62661 74837,62792 74838,62792 74523,62792 74534,62781 74562,62712 74562,62637 74562,62087 74534,62018 74481,61965 74412,61937 74337,61937 73787,61937 73718,61965 73665,62018 73637,62087 73637,62162 73637,62712 73665,62781 73676,62792 72875,62792 72875,59974 72875,59912 72812,59850 72450,59850 72450,60112 72512,60175 72575,60175 72674,60175 72766,60136 72836,60066 72875,59974 72875,62792 72571,62792 72571,61758 66942,61758 66942,60564 66942,60465 66942,60391 66880,60329 66349,60329 66349,60702 66411,60765 66742,60765 66834,60726 66904,60656 66942,60564 66942,61758 66878,61758 66878,62792 66249,62792 64757,62792 64757,60278 64919,60336 65136,60325 65285,60263 65295,60226 65305,60263 65510,60336 65655,60328 65655,60329 65717,60329 65655,60391 65655,60465 65655,60564 65693,60656 65763,60726 65855,60765 66186,60765 66249,60702 66249,60329 66241,60329 66241,60229 66249,60229 66249,59855 66186,59793 66137,59793 66133,59718 66729,59718 66798,59690 66851,59637 66880,59568 66880,59493 66880,59337 66946,59337 66940,59343 66912,59412 66912,59487 66912,59920 66904,59901 66834,59831 66742,59793 66411,59793 66349,59855 66349,60229 66880,60229 66942,60166 66942,60158 66993,60209 67062,60237 67137,60237 67243,60237 67243,60449 67243,60450 67259,60531 67262,60548 67318,60631 68318,61631 68318,61631 68401,61687 68401,61687 68500,61706 71199,61706 71200,61706 71200,61706 71281,61690 71298,61687 71298,61687 71381,61631 72081,60931 72081,60931 72081,60931 72118,60875 72137,60848 72137,60848 72156,60750 72156,60750 72156,60749 72156,60600 72156,60175 72224,60175 72287,60175 72350,60112 72350,59850 72342,59850 72342,59756 72400,59756 73802,59756 73837,59792 73843,59794 73843,60266 73790,60318 73762,60387 73762,60462 73762,61012 73790,61081 73843,61134 73912,61162 73987,61162 74337,61162 74406,61134 74459,61081 74487,61012 74487,60937 74487,60387 74459,60318 74406,60265 74356,60245 74356,59794 74361,59792 74492,59662 74562,59492 74562,59308 74492,59138 74362,59007 74192,58937 74008,58937 73838,59007 73707,59137 73663,59243 72812,59243 72812,59037 72784,58968 72731,58915 72681,58895 72681,58744 72706,58734 72759,58681 72787,58612 72787,58537 72787,57987 72759,57918 72706,57865 72637,57837 72562,57837 72212,57837 72143,57865 72090,57918 72062,57987 72062,58062 72062,58612 72090,58681 72143,58734 72168,58744 72168,58887 72137,58887 72068,58915 72015,58968 71987,59037 71987,59112 71987,59272 71918,59318 71918,59318 71718,59518 71699,59546 71699,57786 71773,57712 73637,57712 73637,57762 73637,58312 73537,58312 73537,57987 73509,57918 73456,57865 73387,57837 73312,57837 72962,57837 72893,57865 72840,57918 72812,57987 72812,58062 72812,58612 72840,58681 72893,58734 72962,58762 73037,58762 73323,58762 73333,58769 73334,58769 73425,58787 74750,58787 74750,58787 74841,58769 74841,58769 74918,58718 75173,58462 75191,58462 75361,58392 75492,58262 75562,58092 75562,57908 75492,57738 75467,57712 75676,57712 75705,57742 75637,57907 75637,58091 75707,58261 75837,58392 76007,58462 76191,58462 76361,58392 76362,58392 76362,58701 76126,58937 76008,58937 75838,59007 75707,59137 75637,59307 75637,59491 75669,59569 75562,59675 75562,59308 75492,59138 75362,59007 75192,58937 75008,58937 74838,59007 74707,59137 74637,59307 74637,59491 74707,59661 74837,59792 75007,59862 75191,59862 75361,59792 75492,59662 75562,59492 75562,59308 75562,59675 75001,60237 74662,60237 74593,60265 74540,60318 74512,60387 74512,60462 74512,61012 74540,61081 74593,61134 74662,61162 74737,61162 75087,61162 75156,61134 75209,61081 75237,61012 75237,60937 75237,60673 76048,59862 76191,59862 76361,59792 76492,59662 76562,59492 76562,59308 76523,59212 76768,58968 76768,58968 76819,58891 76837,58800 76837,58800 76837,58392 77007,58462 77191,58462 77361,58392 77492,58262 77562,58092 77562,57908 77492,57738 77362,57607 77192,57537 77008,57537 76838,57607 76837,57607 76837,57600 76819,57509 76819,57508 76799,57478 76768,57431 76368,57031 76291,56980 76200,56962 72400,56962 72100,56962 72098,56962 71868,56731 71868,56731 71537,56401 71537,56319 71702,56387 71896,56387 72075,56313 72213,56176 72287,55997 72287,55803 72213,55624 72076,55486 72037,55470 72037,55300 72019,55208 71968,55131 71968,55131 71768,54931 71691,54880 71600,54862 69645,54862 69550,54843 69451,54862 69368,54918 69118,55168 69062,55251 69059,55268 69043,55350 68912,55350 68850,55412 68850,55850 68857,55850 68857,55950 68850,55950 68850,56387 68912,56450 69043,56450 69043,56553 68974,56525 68912,56525 68850,56587 68850,56950 68857,56950 68857,57050 68850,57050 68850,57057 68750,57057 68750,57050 68742,57050 68742,56950 68750,56950 68750,56587 68750,56387 68750,55950 68750,55850 68750,55412 68687,55350 68450,55350 68358,55388 68288,55458 68250,55550 68250,55649 68250,55787 68312,55850 68750,55850 68750,55950 68312,55950 68250,56012 68250,56150 68250,56249 68288,56341 68358,56411 68450,56450 68687,56450 68750,56387 68750,56587 68687,56525 68625,56525 68533,56563 68463,56633 68458,56643 68431,56615 68362,56587 68287,56587 68037,56587 67968,56615 67915,56668 67887,56737 67887,56812 67887,57262 67888,57266 66880,57266 66880,57249 66851,57180 66798,57127 66729,57099 66655,57099 65868,57099 65799,57127 65746,57180 65717,57249 65717,57324 65717,57480 65671,57463 65454,57474 65305,57536 65295,57573 65285,57536 65080,57463 64863,57474 64757,57518 64757,54332 73490,54332 73311,54511 73253,54598 73233,54700 73253,54801 73262,54814 73262,55700 73280,55791 73331,55868 73931,56468 73931,56468 73931,56468 74131,56668 74131,56668 74208,56719 74300,56737 76800,56737 77301,56737 77662,57098 77662,59200 77662,59604 77653,59650 77671,59744 77725,59824 78165,60264 78193,60306 78276,60362 78375,60381 78800,60381 78850,60391 78893,60382 79023,60513 79202,60587 79396,60587 79575,60513 79713,60376 79762,60258 79762,60700 "
         fill="none;" />
    </g>
    <g
       transform="translate(-57474.066,-50786.058)"
       id="g846"
       style="fill:#ffffff;fill-opacity:1;stroke:#ffffff;stroke-width:59.05509949;stroke-linecap:round;stroke-linejoin:round;stroke-opacity:1">
      <circle
         d="m 79339.37,61100 c 0,21.744 -17.626,39.37 -39.37,39.37 -21.744,0 -39.37,-17.626 -39.37,-39.37 0,-21.744 17.626,-39.37 39.37,-39.37 21.744,0 39.37,17.626 39.37,39.37 z"
         sodipodi:ry="39.370098"
         sodipodi:rx="39.370098"
         sodipodi:cy="61100"
         sodipodi:cx="79300"
         id="circle848"
         r="39.370098"
         cy="61100"
         cx="79300" />
      <circle
         d="m 79339.37,60100 c 0,21.744 -17.626,39.37 -39.37,39.37 -21.744,0 -39.37,-17.626 -39.37,-39.37 0,-21.744 17.626,-39.37 39.37,-39.37 21.744,0 39.37,17.626 39.37,39.37 z"
         sodipodi:ry="39.370098"
         sodipodi:rx="39.370098"
         sodipodi:cy="60100"
         sodipodi:cx="79300"
         id="circle850"
         r="39.370098"
         cy="60100"
         cx="79300" />
      <circle
         d="m 79339.37,59100 c 0,21.744 -17.626,39.37 -39.37,39.37 -21.744,0 -39.37,-17.626 -39.37,-39.37 0,-21.744 17.626,-39.37 39.37,-39.37 21.744,0 39.37,17.626 39.37,39.37 z"
         sodipodi:ry="39.370098"
         sodipodi:rx="39.370098"
         sodipodi:cy="59100"
         sodipodi:cx="79300"
         id="circle852"
         r="39.370098"
         cy="59100"
         cx="79300" />
      <circle
         d="m 79339.37,58100 c 0,21.744 -17.626,39.37 -39.37,39.37 -21.744,0 -39.37,-17.626 -39.37,-39.37 0,-21.744 17.626,-39.37 39.37,-39.37 21.744,0 39.37,17.626 39.37,39.37 z"
         sodipodi:ry="39.370098"
         sodipodi:rx="39.370098"
         sodipodi:cy="58100"
         sodipodi:cx="79300"
         id="circle854"
         r="39.370098"
         cy="58100"
         cx="79300" />
      <circle
         d="m 79339.37,57100 c 0,21.744 -17.626,39.37 -39.37,39.37 -21.744,0 -39.37,-17.626 -39.37,-39.37 0,-21.744 17.626,-39.37 39.37,-39.37 21.744,0 39.37,17.626 39.37,39.37 z"
         sodipodi:ry="39.370098"
         sodipodi:rx="39.370098"
         sodipodi:cy="57100"
         sodipodi:cx="79300"
         id="circle856"
         r="39.370098"
         cy="57100"
         cx="79300" />
      <circle
         d="m 68839.37,55900 c 0,21.744 -17.626,39.37 -39.37,39.37 -21.744,0 -39.37,-17.626 -39.37,-39.37 0,-21.744 17.626,-39.37 39.37,-39.37 21.744,0 39.37,17.626 39.37,39.37 z"
         sodipodi:ry="39.370098"
         sodipodi:rx="39.370098"
         sodipodi:cy="55900"
         sodipodi:cx="68800"
         id="circle858"
         r="39.370098"
         cy="55900"
         cx="68800" />
      <circle
         d="m 69839.37,55900 c 0,21.744 -17.626,39.37 -39.37,39.37 -21.744,0 -39.37,-17.626 -39.37,-39.37 0,-21.744 17.626,-39.37 39.37,-39.37 21.744,0 39.37,17.626 39.37,39.37 z"
         sodipodi:ry="39.370098"
         sodipodi:rx="39.370098"
         sodipodi:cy="55900"
         sodipodi:cx="69800"
         id="circle860"
         r="39.370098"
         cy="55900"
         cx="69800" />
      <circle
         d="m 70839.37,55900 c 0,21.744 -17.626,39.37 -39.37,39.37 -21.744,0 -39.37,-17.626 -39.37,-39.37 0,-21.744 17.626,-39.37 39.37,-39.37 21.744,0 39.37,17.626 39.37,39.37 z"
         sodipodi:ry="39.370098"
         sodipodi:rx="39.370098"
         sodipodi:cy="55900"
         sodipodi:cx="70800"
         id="circle862"
         r="39.370098"
         cy="55900"
         cx="70800" />
      <circle
         d="m 71839.37,55900 c 0,21.744 -17.626,39.37 -39.37,39.37 -21.744,0 -39.37,-17.626 -39.37,-39.37 0,-21.744 17.626,-39.37 39.37,-39.37 21.744,0 39.37,17.626 39.37,39.37 z"
         sodipodi:ry="39.370098"
         sodipodi:rx="39.370098"
         sodipodi:cy="55900"
         sodipodi:cx="71800"
         id="circle864"
         r="39.370098"
         cy="55900"
         cx="71800" />
      <circle
         d="m 74139.37,58000 c 0,21.744 -17.626,39.37 -39.37,39.37 -21.744,0 -39.37,-17.626 -39.37,-39.37 0,-21.744 17.626,-39.37 39.37,-39.37 21.744,0 39.37,17.626 39.37,39.37 z"
         sodipodi:ry="39.370098"
         sodipodi:rx="39.370098"
         sodipodi:cy="58000"
         sodipodi:cx="74100"
         id="circle866"
         r="39.370098"
         cy="58000"
         cx="74100" />
      <circle
         d="m 75139.37,58000 c 0,21.744 -17.626,39.37 -39.37,39.37 -21.744,0 -39.37,-17.626 -39.37,-39.37 0,-21.744 17.626,-39.37 39.37,-39.37 21.744,0 39.37,17.626 39.37,39.37 z"
         sodipodi:ry="39.370098"
         sodipodi:rx="39.370098"
         sodipodi:cy="58000"
         sodipodi:cx="75100"
         id="circle868"
         r="39.370098"
         cy="58000"
         cx="75100" />
      <circle
         d="m 76139.37,58000 c 0,21.744 -17.626,39.37 -39.37,39.37 -21.744,0 -39.37,-17.626 -39.37,-39.37 0,-21.744 17.626,-39.37 39.37,-39.37 21.744,0 39.37,17.626 39.37,39.37 z"
         sodipodi:ry="39.370098"
         sodipodi:rx="39.370098"
         sodipodi:cy="58000"
         sodipodi:cx="76100"
         id="circle870"
         r="39.370098"
         cy="58000"
         cx="76100" />
      <circle
         d="m 77139.37,58000 c 0,21.744 -17.626,39.37 -39.37,39.37 -21.744,0 -39.37,-17.626 -39.37,-39.37 0,-21.744 17.626,-39.37 39.37,-39.37 21.744,0 39.37,17.626 39.37,39.37 z"
         sodipodi:ry="39.370098"
         sodipodi:rx="39.370098"
         sodipodi:cy="58000"
         sodipodi:cx="77100"
         id="circle872"
         r="39.370098"
         cy="58000"
         cx="77100" />
      <circle
         d="m 77139.37,55000 c 0,21.744 -17.626,39.37 -39.37,39.37 -21.744,0 -39.37,-17.626 -39.37,-39.37 0,-21.744 17.626,-39.37 39.37,-39.37 21.744,0 39.37,17.626 39.37,39.37 z"
         sodipodi:ry="39.370098"
         sodipodi:rx="39.370098"
         sodipodi:cy="55000"
         sodipodi:cx="77100"
         id="circle874"
         r="39.370098"
         cy="55000"
         cx="77100" />
      <circle
         d="m 76139.37,55000 c 0,21.744 -17.626,39.37 -39.37,39.37 -21.744,0 -39.37,-17.626 -39.37,-39.37 0,-21.744 17.626,-39.37 39.37,-39.37 21.744,0 39.37,17.626 39.37,39.37 z"
         sodipodi:ry="39.370098"
         sodipodi:rx="39.370098"
         sodipodi:cy="55000"
         sodipodi:cx="76100"
         id="circle876"
         r="39.370098"
         cy="55000"
         cx="76100" />
      <circle
         d="m 75139.37,55000 c 0,21.744 -17.626,39.37 -39.37,39.37 -21.744,0 -39.37,-17.626 -39.37,-39.37 0,-21.744 17.626,-39.37 39.37,-39.37 21.744,0 39.37,17.626 39.37,39.37 z"
         sodipodi:ry="39.370098"
         sodipodi:rx="39.370098"
         sodipodi:cy="55000"
         sodipodi:cx="75100"
         id="circle878"
         r="39.370098"
         cy="55000"
         cx="75100" />
      <circle
         d="m 74139.37,55000 c 0,21.744 -17.626,39.37 -39.37,39.37 -21.744,0 -39.37,-17.626 -39.37,-39.37 0,-21.744 17.626,-39.37 39.37,-39.37 21.744,0 39.37,17.626 39.37,39.37 z"
         sodipodi:ry="39.370098"
         sodipodi:rx="39.370098"
         sodipodi:cy="55000"
         sodipodi:cx="74100"
         id="circle880"
         r="39.370098"
         cy="55000"
         cx="74100" />
      <circle
         d="m 74139.37,62400 c 0,21.744 -17.626,39.37 -39.37,39.37 -21.744,0 -39.37,-17.626 -39.37,-39.37 0,-21.744 17.626,-39.37 39.37,-39.37 21.744,0 39.37,17.626 39.37,39.37 z"
         sodipodi:ry="39.370098"
         sodipodi:rx="39.370098"
         sodipodi:cy="62400"
         sodipodi:cx="74100"
         id="circle882"
         r="39.370098"
         cy="62400"
         cx="74100" />
      <circle
         d="m 75139.37,62400 c 0,21.744 -17.626,39.37 -39.37,39.37 -21.744,0 -39.37,-17.626 -39.37,-39.37 0,-21.744 17.626,-39.37 39.37,-39.37 21.744,0 39.37,17.626 39.37,39.37 z"
         sodipodi:ry="39.370098"
         sodipodi:rx="39.370098"
         sodipodi:cy="62400"
         sodipodi:cx="75100"
         id="circle884"
         r="39.370098"
         cy="62400"
         cx="75100" />
      <circle
         d="m 76139.37,62400 c 0,21.744 -17.626,39.37 -39.37,39.37 -21.744,0 -39.37,-17.626 -39.37,-39.37 0,-21.744 17.626,-39.37 39.37,-39.37 21.744,0 39.37,17.626 39.37,39.37 z"
         sodipodi:ry="39.370098"
         sodipodi:rx="39.370098"
         sodipodi:cy="62400"
         sodipodi:cx="76100"
         id="circle886"
         r="39.370098"
         cy="62400"
         cx="76100" />
      <circle
         d="m 77139.37,62400 c 0,21.744 -17.626,39.37 -39.37,39.37 -21.744,0 -39.37,-17.626 -39.37,-39.37 0,-21.744 17.626,-39.37 39.37,-39.37 21.744,0 39.37,17.626 39.37,39.37 z"
         sodipodi:ry="39.370098"
         sodipodi:rx="39.370098"
         sodipodi:cy="62400"
         sodipodi:cx="77100"
         id="circle888"
         r="39.370098"
         cy="62400"
         cx="77100" />
      <circle
         d="m 77139.37,59400 c 0,21.744 -17.626,39.37 -39.37,39.37 -21.744,0 -39.37,-17.626 -39.37,-39.37 0,-21.744 17.626,-39.37 39.37,-39.37 21.744,0 39.37,17.626 39.37,39.37 z"
         sodipodi:ry="39.370098"
         sodipodi:rx="39.370098"
         sodipodi:cy="59400"
         sodipodi:cx="77100"
         id="circle890"
         r="39.370098"
         cy="59400"
         cx="77100" />
      <circle
         d="m 76139.37,59400 c 0,21.744 -17.626,39.37 -39.37,39.37 -21.744,0 -39.37,-17.626 -39.37,-39.37 0,-21.744 17.626,-39.37 39.37,-39.37 21.744,0 39.37,17.626 39.37,39.37 z"
         sodipodi:ry="39.370098"
         sodipodi:rx="39.370098"
         sodipodi:cy="59400"
         sodipodi:cx="76100"
         id="circle892"
         r="39.370098"
         cy="59400"
         cx="76100" />
      <circle
         d="m 75139.37,59400 c 0,21.744 -17.626,39.37 -39.37,39.37 -21.744,0 -39.37,-17.626 -39.37,-39.37 0,-21.744 17.626,-39.37 39.37,-39.37 21.744,0 39.37,17.626 39.37,39.37 z"
         sodipodi:ry="39.370098"
         sodipodi:rx="39.370098"
         sodipodi:cy="59400"
         sodipodi:cx="75100"
         id="circle894"
         r="39.370098"
         cy="59400"
         cx="75100" />
      <circle
         d="m 74139.37,59400 c 0,21.744 -17.626,39.37 -39.37,39.37 -21.744,0 -39.37,-17.626 -39.37,-39.37 0,-21.744 17.626,-39.37 39.37,-39.37 21.744,0 39.37,17.626 39.37,39.37 z"
         sodipodi:ry="39.370098"
         sodipodi:rx="39.370098"
         sodipodi:cy="59400"
         sodipodi:cx="74100"
         id="circle896"
         r="39.370098"
         cy="59400"
         cx="74100" />
      <circle
         d="m 69939.37,58800 c 0,21.744 -17.626,39.37 -39.37,39.37 -21.744,0 -39.37,-17.626 -39.37,-39.37 0,-21.744 17.626,-39.37 39.37,-39.37 21.744,0 39.37,17.626 39.37,39.37 z"
         sodipodi:ry="39.370098"
         sodipodi:rx="39.370098"
         sodipodi:cy="58800"
         sodipodi:cx="69900"
         id="circle898"
         r="39.370098"
         cy="58800"
         cx="69900" />
      <circle
         d="m 69639.37,59100 c 0,21.744 -17.626,39.37 -39.37,39.37 -21.744,0 -39.37,-17.626 -39.37,-39.37 0,-21.744 17.626,-39.37 39.37,-39.37 21.744,0 39.37,17.626 39.37,39.37 z"
         sodipodi:ry="39.370098"
         sodipodi:rx="39.370098"
         sodipodi:cy="59100"
         sodipodi:cx="69600"
         id="circle900"
         r="39.370098"
         cy="59100"
         cx="69600" />
      <circle
         d="m 69339.37,59400 c 0,21.744 -17.626,39.37 -39.37,39.37 -21.744,0 -39.37,-17.626 -39.37,-39.37 0,-21.744 17.626,-39.37 39.37,-39.37 21.744,0 39.37,17.626 39.37,39.37 z"
         sodipodi:ry="39.370098"
         sodipodi:rx="39.370098"
         sodipodi:cy="59400"
         sodipodi:cx="69300"
         id="circle902"
         r="39.370098"
         cy="59400"
         cx="69300" />
      <circle
         d="m 69339.37,58800 c 0,21.744 -17.626,39.37 -39.37,39.37 -21.744,0 -39.37,-17.626 -39.37,-39.37 0,-21.744 17.626,-39.37 39.37,-39.37 21.744,0 39.37,17.626 39.37,39.37 z"
         sodipodi:ry="39.370098"
         sodipodi:rx="39.370098"
         sodipodi:cy="58800"
         sodipodi:cx="69300"
         id="circle904"
         r="39.370098"
         cy="58800"
         cx="69300" />
      <circle
         d="m 69939.37,59400 c 0,21.744 -17.626,39.37 -39.37,39.37 -21.744,0 -39.37,-17.626 -39.37,-39.37 0,-21.744 17.626,-39.37 39.37,-39.37 21.744,0 39.37,17.626 39.37,39.37 z"
         sodipodi:ry="39.370098"
         sodipodi:rx="39.370098"
         sodipodi:cy="59400"
         sodipodi:cx="69900"
         id="circle906"
         r="39.370098"
         cy="59400"
         cx="69900" />
      <circle
         d="m 65039.37,59786 c 0,21.744 -17.626,39.37 -39.37,39.37 -21.744,0 -39.37,-17.626 -39.37,-39.37 0,-21.744 17.626,-39.37 39.37,-39.37 21.744,0 39.37,17.626 39.37,39.37 z"
         sodipodi:ry="39.370098"
         sodipodi:rx="39.370098"
         sodipodi:cy="59786"
         sodipodi:cx="65000"
         id="circle908"
         r="39.370098"
         cy="59786"
         cx="65000" />
      <circle
         d="m 65630.37,59786 c 0,21.744 -17.626,39.37 -39.37,39.37 -21.744,0 -39.37,-17.626 -39.37,-39.37 0,-21.744 17.626,-39.37 39.37,-39.37 21.744,0 39.37,17.626 39.37,39.37 z"
         sodipodi:ry="39.370098"
         sodipodi:rx="39.370098"
         sodipodi:cy="59786"
         sodipodi:cx="65591"
         id="circle910"
         r="39.370098"
         cy="59786"
         cx="65591" />
      <circle
         d="m 65039.37,58014 c 0,21.744 -17.626,39.37 -39.37,39.37 -21.744,0 -39.37,-17.626 -39.37,-39.37 0,-21.744 17.626,-39.37 39.37,-39.37 21.744,0 39.37,17.626 39.37,39.37 z"
         sodipodi:ry="39.370098"
         sodipodi:rx="39.370098"
         sodipodi:cy="58014"
         sodipodi:cx="65000"
         id="circle912"
         r="39.370098"
         cy="58014"
         cx="65000" />
      <circle
         d="m 65630.37,58014 c 0,21.744 -17.626,39.37 -39.37,39.37 -21.744,0 -39.37,-17.626 -39.37,-39.37 0,-21.744 17.626,-39.37 39.37,-39.37 21.744,0 39.37,17.626 39.37,39.37 z"
         sodipodi:ry="39.370098"
         sodipodi:rx="39.370098"
         sodipodi:cy="58014"
         sodipodi:cx="65591"
         id="circle914"
         r="39.370098"
         cy="58014"
         cx="65591" />
    </g>
  </g>
  <use
     x="0"
     y="0"
     xlink:href="#g3897"
     id="use4350"
     transform="translate(10590.587,-61.933234)"
     width="82677.164"
     height="116929.21" />
  <use
     x="0"
     y="0"
     xlink:href="#use4350"
     id="use4352"
     transform="translate(10404.788,6.5503918e-5)"
     width="82677.164"
     height="116929.21" />
</svg>
