G04 #@! TF.FileFunction,Copper,L2,Bot,Signal*
%FSLAX46Y46*%
G04 Gerber Fmt 4.6, Leading zero omitted, Abs format (unit mm)*
G04 Created by KiCad (PCBNEW (2015-08-11 BZR 6084)-product) date 9/4/2015 1:52:21 AM*
%MOMM*%
G01*
G04 APERTURE LIST*
%ADD10C,0.150000*%
%ADD11C,0.250000*%
%ADD12C,0.300000*%
%ADD13R,2.032000X1.524000*%
%ADD14R,0.635000X1.143000*%
%ADD15R,1.143000X0.635000*%
%ADD16R,1.524000X1.524000*%
%ADD17C,1.524000*%
%ADD18R,0.889000X1.397000*%
%ADD19R,1.397000X1.397000*%
%ADD20C,1.397000*%
%ADD21O,1.000760X0.248920*%
%ADD22O,0.248920X1.000760*%
%ADD23R,2.999740X2.999740*%
%ADD24C,1.099820*%
%ADD25R,1.998980X1.198880*%
%ADD26C,1.501140*%
%ADD27C,0.254000*%
%ADD28C,0.400000*%
%ADD29C,0.350000*%
G04 APERTURE END LIST*
D10*
D11*
X183444358Y-157902357D02*
X183444358Y-158873786D01*
X183387215Y-158988071D01*
X183330072Y-159045214D01*
X183215786Y-159102357D01*
X182987215Y-159102357D01*
X182872929Y-159045214D01*
X182815786Y-158988071D01*
X182758643Y-158873786D01*
X182758643Y-157902357D01*
X182244358Y-159045214D02*
X182072929Y-159102357D01*
X181787215Y-159102357D01*
X181672929Y-159045214D01*
X181615786Y-158988071D01*
X181558643Y-158873786D01*
X181558643Y-158759500D01*
X181615786Y-158645214D01*
X181672929Y-158588071D01*
X181787215Y-158530929D01*
X182015786Y-158473786D01*
X182130072Y-158416643D01*
X182187215Y-158359500D01*
X182244358Y-158245214D01*
X182244358Y-158130929D01*
X182187215Y-158016643D01*
X182130072Y-157959500D01*
X182015786Y-157902357D01*
X181730072Y-157902357D01*
X181558643Y-157959500D01*
X180644358Y-158473786D02*
X180472929Y-158530929D01*
X180415786Y-158588071D01*
X180358643Y-158702357D01*
X180358643Y-158873786D01*
X180415786Y-158988071D01*
X180472929Y-159045214D01*
X180587215Y-159102357D01*
X181044358Y-159102357D01*
X181044358Y-157902357D01*
X180644358Y-157902357D01*
X180530072Y-157959500D01*
X180472929Y-158016643D01*
X180415786Y-158130929D01*
X180415786Y-158245214D01*
X180472929Y-158359500D01*
X180530072Y-158416643D01*
X180644358Y-158473786D01*
X181044358Y-158473786D01*
X178930072Y-159102357D02*
X178930072Y-157902357D01*
X178530072Y-158759500D01*
X178130072Y-157902357D01*
X178130072Y-159102357D01*
X177615786Y-159045214D02*
X177444357Y-159102357D01*
X177158643Y-159102357D01*
X177044357Y-159045214D01*
X176987214Y-158988071D01*
X176930071Y-158873786D01*
X176930071Y-158759500D01*
X176987214Y-158645214D01*
X177044357Y-158588071D01*
X177158643Y-158530929D01*
X177387214Y-158473786D01*
X177501500Y-158416643D01*
X177558643Y-158359500D01*
X177615786Y-158245214D01*
X177615786Y-158130929D01*
X177558643Y-158016643D01*
X177501500Y-157959500D01*
X177387214Y-157902357D01*
X177101500Y-157902357D01*
X176930071Y-157959500D01*
X176530071Y-157902357D02*
X175730071Y-159102357D01*
X175730071Y-157902357D02*
X176530071Y-159102357D01*
X175272929Y-158645214D02*
X174358643Y-158645214D01*
X173215786Y-159102357D02*
X173787215Y-159102357D01*
X173787215Y-157902357D01*
X172815786Y-159102357D02*
X172815786Y-158302357D01*
X172815786Y-157902357D02*
X172872929Y-157959500D01*
X172815786Y-158016643D01*
X172758643Y-157959500D01*
X172815786Y-157902357D01*
X172815786Y-158016643D01*
X172244357Y-158302357D02*
X172244357Y-159102357D01*
X172244357Y-158416643D02*
X172187214Y-158359500D01*
X172072928Y-158302357D01*
X171901500Y-158302357D01*
X171787214Y-158359500D01*
X171730071Y-158473786D01*
X171730071Y-159102357D01*
X171158643Y-159102357D02*
X171158643Y-157902357D01*
X171044357Y-158645214D02*
X170701500Y-159102357D01*
X170701500Y-158302357D02*
X171158643Y-158759500D01*
D12*
X204489929Y-154701284D02*
X204489929Y-155558427D01*
X204489929Y-155129855D02*
X205989929Y-155129855D01*
X205775643Y-155272712D01*
X205632786Y-155415570D01*
X205561357Y-155558427D01*
X205847071Y-152986999D02*
X205918500Y-152915570D01*
X205989929Y-152772713D01*
X205989929Y-152415570D01*
X205918500Y-152272713D01*
X205847071Y-152201284D01*
X205704214Y-152129856D01*
X205561357Y-152129856D01*
X205347071Y-152201284D01*
X204489929Y-153058427D01*
X204489929Y-152129856D01*
X205989929Y-150486999D02*
X205989929Y-149558428D01*
X205418500Y-150058428D01*
X205418500Y-149844142D01*
X205347071Y-149701285D01*
X205275643Y-149629856D01*
X205132786Y-149558428D01*
X204775643Y-149558428D01*
X204632786Y-149629856D01*
X204561357Y-149701285D01*
X204489929Y-149844142D01*
X204489929Y-150272714D01*
X204561357Y-150415571D01*
X204632786Y-150486999D01*
X205489929Y-147129857D02*
X204489929Y-147129857D01*
X206061357Y-147487000D02*
X204989929Y-147844143D01*
X204989929Y-146915571D01*
X205989929Y-144487000D02*
X205989929Y-145201286D01*
X205275643Y-145272715D01*
X205347071Y-145201286D01*
X205418500Y-145058429D01*
X205418500Y-144701286D01*
X205347071Y-144558429D01*
X205275643Y-144487000D01*
X205132786Y-144415572D01*
X204775643Y-144415572D01*
X204632786Y-144487000D01*
X204561357Y-144558429D01*
X204489929Y-144701286D01*
X204489929Y-145058429D01*
X204561357Y-145201286D01*
X204632786Y-145272715D01*
D13*
X171450000Y-148463000D03*
X171450000Y-151765000D03*
D14*
X173228000Y-144780000D03*
X174752000Y-144780000D03*
D15*
X198374000Y-142494000D03*
X198374000Y-140970000D03*
X183896000Y-150368000D03*
X183896000Y-151892000D03*
D16*
X201422000Y-155194000D03*
D17*
X201422000Y-152654000D03*
X201422000Y-150114000D03*
X201422000Y-147574000D03*
X201422000Y-145034000D03*
D16*
X174752000Y-141986000D03*
D17*
X177292000Y-141986000D03*
X179832000Y-141986000D03*
X182372000Y-141986000D03*
D18*
X183959500Y-148082000D03*
X185864500Y-148082000D03*
X191071500Y-141732000D03*
X192976500Y-141732000D03*
X188277500Y-154178000D03*
X190182500Y-154178000D03*
D19*
X188214000Y-147320000D03*
D20*
X190754000Y-147320000D03*
X193294000Y-147320000D03*
X195834000Y-147320000D03*
X195834000Y-139700000D03*
X193294000Y-139700000D03*
X190754000Y-139700000D03*
X188214000Y-139700000D03*
D19*
X188214000Y-158496000D03*
D20*
X190754000Y-158496000D03*
X193294000Y-158496000D03*
X195834000Y-158496000D03*
X195834000Y-150876000D03*
X193294000Y-150876000D03*
X190754000Y-150876000D03*
X188214000Y-150876000D03*
D21*
X174284640Y-151615140D03*
X174284640Y-151114760D03*
X174284640Y-150614380D03*
X174284640Y-150114000D03*
X174284640Y-149613620D03*
X174284640Y-149113240D03*
X174284640Y-148612860D03*
D22*
X175282860Y-147614640D03*
X175783240Y-147614640D03*
X176283620Y-147614640D03*
X176784000Y-147614640D03*
X177284380Y-147614640D03*
X177784760Y-147614640D03*
X178285140Y-147614640D03*
D21*
X179283360Y-148612860D03*
X179283360Y-149113240D03*
X179283360Y-149613620D03*
X179283360Y-150114000D03*
X179283360Y-150614380D03*
X179283360Y-151114760D03*
X179283360Y-151615140D03*
D22*
X178285140Y-152613360D03*
X177784760Y-152613360D03*
X177284380Y-152613360D03*
X176784000Y-152613360D03*
X176283620Y-152613360D03*
X175783240Y-152613360D03*
X175282860Y-152613360D03*
D23*
X176784000Y-150114000D03*
D24*
X177546000Y-149352000D03*
X176784000Y-150114000D03*
X176022000Y-150876000D03*
X176022000Y-149352000D03*
X177546000Y-150876000D03*
D25*
X168399460Y-146108420D03*
X168399460Y-148607780D03*
X168399460Y-150609300D03*
X168399460Y-153108660D03*
D26*
X165100000Y-151856440D03*
X166601140Y-151856440D03*
X165100000Y-147355560D03*
X166601140Y-147355560D03*
D27*
X197866000Y-150368000D02*
X197866000Y-151511000D01*
X196596000Y-143510000D02*
X197866000Y-144780000D01*
X197866000Y-144780000D02*
X197866000Y-150368000D01*
X188214000Y-143002000D02*
X188722000Y-143510000D01*
X188214000Y-143002000D02*
X186690000Y-141478000D01*
D28*
X195834000Y-139700000D02*
X194310000Y-138176000D01*
X187452000Y-138176000D02*
X194310000Y-138176000D01*
X186690000Y-138938000D02*
X187452000Y-138176000D01*
D27*
X186690000Y-141478000D02*
X186690000Y-138938000D01*
X188722000Y-143510000D02*
X195072000Y-143510000D01*
X195072000Y-143510000D02*
X196596000Y-143510000D01*
D28*
X200342500Y-152654000D02*
X201422000Y-152654000D01*
X200279000Y-152717500D02*
X200342500Y-152654000D01*
D29*
X199072500Y-152717500D02*
X200279000Y-152717500D01*
D12*
X197866000Y-151511000D02*
X199072500Y-152717500D01*
D28*
X195834000Y-139700000D02*
X197104000Y-139700000D01*
X197104000Y-139700000D02*
X198374000Y-140970000D01*
D27*
X198374000Y-147574000D02*
X198374000Y-149034500D01*
X198374000Y-142494000D02*
X198374000Y-147574000D01*
D28*
X199453500Y-150114000D02*
X201422000Y-150114000D01*
D12*
X198374000Y-149034500D02*
X199453500Y-150114000D01*
D27*
X201422000Y-150114000D02*
X200914000Y-150114000D01*
X191071500Y-141732000D02*
X191262000Y-141732000D01*
X191262000Y-141732000D02*
X192532000Y-143002000D01*
X192532000Y-143002000D02*
X197866000Y-143002000D01*
X197866000Y-143002000D02*
X198374000Y-142494000D01*
D28*
X190754000Y-139700000D02*
X190754000Y-141414500D01*
D27*
X190754000Y-141414500D02*
X191071500Y-141732000D01*
X201422000Y-150114000D02*
X202184000Y-150114000D01*
D28*
X202184000Y-150114000D02*
X203200000Y-151130000D01*
D27*
X203200000Y-151130000D02*
X203200000Y-156464000D01*
X203200000Y-156464000D02*
X202438000Y-157226000D01*
X202438000Y-157226000D02*
X198882000Y-157226000D01*
X198882000Y-157226000D02*
X197612000Y-155956000D01*
X197612000Y-155956000D02*
X193294000Y-155956000D01*
D28*
X193294000Y-155956000D02*
X190754000Y-158496000D01*
X188214000Y-139700000D02*
X190754000Y-139700000D01*
X201422000Y-147574000D02*
X202692000Y-147574000D01*
X195072000Y-156718000D02*
X193294000Y-158496000D01*
D27*
X197358000Y-156718000D02*
X195072000Y-156718000D01*
X198882000Y-158242000D02*
X197358000Y-156718000D01*
X202692000Y-158242000D02*
X198882000Y-158242000D01*
X203962000Y-156972000D02*
X202692000Y-158242000D01*
X203962000Y-148844000D02*
X203962000Y-156972000D01*
X202692000Y-147574000D02*
X203962000Y-148844000D01*
X192976500Y-141732000D02*
X200406000Y-141732000D01*
D28*
X201422000Y-142748000D02*
X201422000Y-145034000D01*
D12*
X200406000Y-141732000D02*
X201422000Y-142748000D01*
D28*
X193294000Y-139700000D02*
X193294000Y-141414500D01*
D27*
X193294000Y-141414500D02*
X192976500Y-141732000D01*
X183134000Y-145288000D02*
X182880000Y-145288000D01*
X182118000Y-144526000D02*
X181102000Y-143510000D01*
X180594000Y-140462000D02*
X179070000Y-140462000D01*
X181102000Y-143510000D02*
X181102000Y-140970000D01*
X181102000Y-140970000D02*
X180594000Y-140462000D01*
D28*
X193294000Y-150622000D02*
X194564000Y-149352000D01*
D27*
X194564000Y-149352000D02*
X194564000Y-146304000D01*
X194564000Y-146304000D02*
X193548000Y-145288000D01*
X193548000Y-145288000D02*
X183896000Y-145288000D01*
X193294000Y-150876000D02*
X193294000Y-150622000D01*
X183896000Y-145288000D02*
X183134000Y-145288000D01*
X178562000Y-140970000D02*
X178562000Y-141986000D01*
X179070000Y-140462000D02*
X178562000Y-140970000D01*
X182880000Y-145288000D02*
X182118000Y-144526000D01*
X180467000Y-153543000D02*
X180975000Y-153035000D01*
X180975000Y-153035000D02*
X180975000Y-146939000D01*
X180975000Y-146939000D02*
X180467000Y-146431000D01*
X178562000Y-144272000D02*
X178562000Y-144526000D01*
X176784000Y-153670000D02*
X177038000Y-153924000D01*
X177038000Y-153924000D02*
X180086000Y-153924000D01*
X176784000Y-153670000D02*
X176784000Y-152613360D01*
X178562000Y-141986000D02*
X178562000Y-144272000D01*
X180467000Y-153543000D02*
X180086000Y-153924000D01*
X178562000Y-144526000D02*
X180467000Y-146431000D01*
D28*
X177292000Y-141986000D02*
X178562000Y-141986000D01*
D27*
X193294000Y-150876000D02*
X193294000Y-151066500D01*
D28*
X193294000Y-151066500D02*
X190182500Y-154178000D01*
X179832000Y-141986000D02*
X179832000Y-144081500D01*
D27*
X179832000Y-144081500D02*
X181895750Y-146145250D01*
X193294000Y-147320000D02*
X193294000Y-146812000D01*
X176283620Y-154185620D02*
X176657000Y-154559000D01*
X176657000Y-154559000D02*
X177038000Y-154559000D01*
X180467000Y-154559000D02*
X177038000Y-154559000D01*
X176283620Y-154185620D02*
X176283620Y-152613360D01*
X181513998Y-153512002D02*
X180467000Y-154559000D01*
X181513998Y-153512002D02*
X181513998Y-146527002D01*
X182054500Y-145986500D02*
X181895750Y-146145250D01*
X181895750Y-146145250D02*
X181513998Y-146527002D01*
X192468500Y-145986500D02*
X182054500Y-145986500D01*
D28*
X193294000Y-146812000D02*
X192468500Y-145986500D01*
D27*
X174284640Y-148612860D02*
X172996860Y-148612860D01*
X172847000Y-148463000D02*
X172847000Y-146108420D01*
X172996860Y-148612860D02*
X172847000Y-148463000D01*
D29*
X173228000Y-146108420D02*
X173228000Y-144780000D01*
X168399460Y-146108420D02*
X172847000Y-146108420D01*
X172847000Y-146108420D02*
X173228000Y-146108420D01*
X173228000Y-146108420D02*
X175374300Y-146108420D01*
X175374300Y-146108420D02*
X175282860Y-146199860D01*
D28*
X182372000Y-141986000D02*
X182372000Y-140462000D01*
D29*
X176022000Y-145460720D02*
X175282860Y-146199860D01*
X176022000Y-140589000D02*
X176022000Y-145460720D01*
X176657000Y-139954000D02*
X176022000Y-140589000D01*
D27*
X181864000Y-139954000D02*
X176657000Y-139954000D01*
X182372000Y-140462000D02*
X181864000Y-139954000D01*
X175282860Y-147614640D02*
X175282860Y-146199860D01*
D29*
X183896000Y-151130000D02*
X183896000Y-150368000D01*
X183959500Y-148082000D02*
X183959500Y-150304500D01*
X183959500Y-150304500D02*
X183896000Y-150368000D01*
X182626000Y-153924000D02*
X182626000Y-151638000D01*
X171450000Y-153543000D02*
X173990000Y-156083000D01*
X173990000Y-156083000D02*
X180848000Y-156083000D01*
X180848000Y-156083000D02*
X182626000Y-154305000D01*
X182626000Y-154305000D02*
X182626000Y-153924000D01*
X183896000Y-151130000D02*
X183134000Y-151130000D01*
X171450000Y-153543000D02*
X171450000Y-151765000D01*
X182626000Y-151638000D02*
X183134000Y-151130000D01*
D27*
X183959500Y-151066500D02*
X183896000Y-151130000D01*
D29*
X183896000Y-151130000D02*
X187960000Y-151130000D01*
D27*
X187960000Y-151130000D02*
X188214000Y-150876000D01*
D29*
X188214000Y-150876000D02*
X188214000Y-154114500D01*
D27*
X188214000Y-154114500D02*
X188277500Y-154178000D01*
X174284640Y-150614380D02*
X176283620Y-150614380D01*
X176283620Y-150614380D02*
X176784000Y-150114000D01*
D28*
X183896000Y-156210000D02*
X184404000Y-156210000D01*
X184404000Y-156210000D02*
X189230000Y-156210000D01*
X183896000Y-155702000D02*
X183896000Y-156210000D01*
X183896000Y-156210000D02*
X183896000Y-156718000D01*
X183896000Y-152717500D02*
X183896000Y-155702000D01*
X168399460Y-155191460D02*
X170307000Y-157099000D01*
X170307000Y-157099000D02*
X183515000Y-157099000D01*
X168399460Y-155191460D02*
X168399460Y-153108660D01*
X183896000Y-156718000D02*
X183515000Y-157099000D01*
X166601140Y-151856440D02*
X166601140Y-152440640D01*
X166601140Y-152440640D02*
X167269160Y-153108660D01*
X165100000Y-151856440D02*
X165100000Y-152400000D01*
X165100000Y-152400000D02*
X165808660Y-153108660D01*
X165100000Y-147355560D02*
X165100000Y-142811500D01*
X165100000Y-142811500D02*
X168910000Y-139001500D01*
X166601140Y-147355560D02*
X166601140Y-142643860D01*
X166601140Y-142643860D02*
X170243500Y-139001500D01*
X164401500Y-149669500D02*
X166601140Y-149669500D01*
X166624000Y-149606000D02*
X166601140Y-149606000D01*
X166624000Y-149646640D02*
X166624000Y-149606000D01*
X166601140Y-149669500D02*
X166624000Y-149646640D01*
X164338000Y-149669500D02*
X164401500Y-149669500D01*
X164401500Y-149669500D02*
X164909500Y-149669500D01*
X164909500Y-149669500D02*
X165100000Y-149479000D01*
X165100000Y-147355560D02*
X165100000Y-149479000D01*
X165100000Y-149479000D02*
X165100000Y-151856440D01*
X166601140Y-147355560D02*
X166601140Y-149606000D01*
X166601140Y-149606000D02*
X166601140Y-151856440D01*
X168399460Y-153108660D02*
X167269160Y-153108660D01*
X167269160Y-153108660D02*
X165808660Y-153108660D01*
X165808660Y-153108660D02*
X164729160Y-153108660D01*
X164729160Y-153108660D02*
X164338000Y-152717500D01*
X164338000Y-152717500D02*
X164338000Y-149669500D01*
X167513000Y-139001500D02*
X168910000Y-139001500D01*
X164338000Y-142176500D02*
X167513000Y-139001500D01*
X164338000Y-149669500D02*
X164338000Y-142176500D01*
X168910000Y-139001500D02*
X170243500Y-139001500D01*
X170243500Y-139001500D02*
X176593500Y-139001500D01*
X183896000Y-152717500D02*
X183896000Y-151892000D01*
D12*
X181991000Y-154051000D02*
X181991000Y-147447000D01*
X181991000Y-147447000D02*
X182689500Y-146748500D01*
X182689500Y-146748500D02*
X184467500Y-146748500D01*
X184467500Y-146748500D02*
X184912000Y-147193000D01*
X184912000Y-147193000D02*
X184912000Y-147574000D01*
D29*
X180467000Y-155321000D02*
X180721000Y-155321000D01*
X189230000Y-152146000D02*
X189484000Y-151892000D01*
X189484000Y-151892000D02*
X189484000Y-149860000D01*
X189484000Y-149860000D02*
X189230000Y-149606000D01*
X189230000Y-149606000D02*
X187452000Y-149606000D01*
X187452000Y-149606000D02*
X186690000Y-150368000D01*
X186690000Y-150368000D02*
X185420000Y-150368000D01*
X185420000Y-150368000D02*
X184912000Y-149860000D01*
X184912000Y-149860000D02*
X184912000Y-147574000D01*
X189230000Y-152146000D02*
X189230000Y-156210000D01*
X174625000Y-155321000D02*
X173101000Y-153797000D01*
X180467000Y-155321000D02*
X174625000Y-155321000D01*
D27*
X173101000Y-150614380D02*
X173101000Y-153797000D01*
D12*
X180721000Y-155321000D02*
X181991000Y-154051000D01*
D29*
X176593500Y-139001500D02*
X182435500Y-139001500D01*
X182435500Y-139001500D02*
X183261000Y-139827000D01*
X184023000Y-140589000D02*
X183261000Y-139827000D01*
X196088000Y-144526000D02*
X197231000Y-145669000D01*
X197231000Y-145669000D02*
X197231000Y-149479000D01*
X197231000Y-149479000D02*
X195834000Y-150876000D01*
X187960000Y-144526000D02*
X194564000Y-144526000D01*
X184023000Y-140589000D02*
X187960000Y-144526000D01*
X194564000Y-144526000D02*
X196088000Y-144526000D01*
X174752000Y-140843000D02*
X174752000Y-141986000D01*
X176593500Y-139001500D02*
X175768000Y-139827000D01*
X174752000Y-140843000D02*
X175768000Y-139827000D01*
X176530000Y-139065000D02*
X176593500Y-139001500D01*
X174752000Y-141986000D02*
X174752000Y-144780000D01*
D27*
X173101000Y-150614380D02*
X173101000Y-150622000D01*
X173101000Y-150622000D02*
X173101000Y-150614380D01*
D29*
X183896000Y-152654000D02*
X183896000Y-152717500D01*
D27*
X174284640Y-150614380D02*
X173101000Y-150614380D01*
X173101000Y-150614380D02*
X170187620Y-150614380D01*
D29*
X169598340Y-153108660D02*
X168399460Y-153108660D01*
X169926000Y-152781000D02*
X169598340Y-153108660D01*
X169926000Y-150876000D02*
X169926000Y-152781000D01*
D27*
X170187620Y-150614380D02*
X169926000Y-150876000D01*
D28*
X195834000Y-151130000D02*
X190754000Y-156210000D01*
X190754000Y-156210000D02*
X189230000Y-156210000D01*
D27*
X195834000Y-151130000D02*
X195834000Y-150876000D01*
X174284640Y-150114000D02*
X168894760Y-150114000D01*
X168894760Y-150114000D02*
X168399460Y-150609300D01*
X174284640Y-149113240D02*
X172100240Y-149113240D01*
X172100240Y-149113240D02*
X171450000Y-148463000D01*
X170307000Y-149613620D02*
X169933620Y-149613620D01*
X168927780Y-148607780D02*
X168399460Y-148607780D01*
X169933620Y-149613620D02*
X168927780Y-148607780D01*
X172092620Y-149613620D02*
X170307000Y-149613620D01*
X170307000Y-149613620D02*
X170314620Y-149613620D01*
X174284640Y-149613620D02*
X172092620Y-149613620D01*
X190754000Y-147320000D02*
X190754000Y-147828000D01*
X186499500Y-148717000D02*
X185864500Y-148082000D01*
X189865000Y-148717000D02*
X186499500Y-148717000D01*
D28*
X190754000Y-147828000D02*
X189865000Y-148717000D01*
D27*
G36*
X165218332Y-147445117D02*
X165114142Y-147549307D01*
X165100000Y-147535165D01*
X165085857Y-147549307D01*
X164906252Y-147369702D01*
X164920395Y-147355560D01*
X164906252Y-147341417D01*
X165085857Y-147161812D01*
X165100000Y-147175955D01*
X165114142Y-147161812D01*
X165208748Y-147256418D01*
X165218332Y-147445117D01*
X165218332Y-147445117D01*
G37*
X165218332Y-147445117D02*
X165114142Y-147549307D01*
X165100000Y-147535165D01*
X165085857Y-147549307D01*
X164906252Y-147369702D01*
X164920395Y-147355560D01*
X164906252Y-147341417D01*
X165085857Y-147161812D01*
X165100000Y-147175955D01*
X165114142Y-147161812D01*
X165208748Y-147256418D01*
X165218332Y-147445117D01*
G36*
X165218332Y-151945997D02*
X165114142Y-152050187D01*
X165100000Y-152036045D01*
X165085857Y-152050187D01*
X164906252Y-151870582D01*
X164920395Y-151856440D01*
X164906252Y-151842297D01*
X165085857Y-151662692D01*
X165100000Y-151676835D01*
X165114142Y-151662692D01*
X165208748Y-151757298D01*
X165218332Y-151945997D01*
X165218332Y-151945997D01*
G37*
X165218332Y-151945997D02*
X165114142Y-152050187D01*
X165100000Y-152036045D01*
X165085857Y-152050187D01*
X164906252Y-151870582D01*
X164920395Y-151856440D01*
X164906252Y-151842297D01*
X165085857Y-151662692D01*
X165100000Y-151676835D01*
X165114142Y-151662692D01*
X165208748Y-151757298D01*
X165218332Y-151945997D01*
G36*
X166794887Y-147369702D02*
X166615282Y-147549307D01*
X166601140Y-147535165D01*
X166586997Y-147549307D01*
X166492391Y-147454701D01*
X166482806Y-147266003D01*
X166586997Y-147161812D01*
X166601140Y-147175955D01*
X166615282Y-147161812D01*
X166794887Y-147341417D01*
X166780745Y-147355560D01*
X166794887Y-147369702D01*
X166794887Y-147369702D01*
G37*
X166794887Y-147369702D02*
X166615282Y-147549307D01*
X166601140Y-147535165D01*
X166586997Y-147549307D01*
X166492391Y-147454701D01*
X166482806Y-147266003D01*
X166586997Y-147161812D01*
X166601140Y-147175955D01*
X166615282Y-147161812D01*
X166794887Y-147341417D01*
X166780745Y-147355560D01*
X166794887Y-147369702D01*
G36*
X166794887Y-151870582D02*
X166615282Y-152050187D01*
X166601140Y-152036045D01*
X166586997Y-152050187D01*
X166492391Y-151955581D01*
X166482806Y-151766883D01*
X166586997Y-151662692D01*
X166601140Y-151676835D01*
X166615282Y-151662692D01*
X166794887Y-151842297D01*
X166780745Y-151856440D01*
X166794887Y-151870582D01*
X166794887Y-151870582D01*
G37*
X166794887Y-151870582D02*
X166615282Y-152050187D01*
X166601140Y-152036045D01*
X166586997Y-152050187D01*
X166492391Y-151955581D01*
X166482806Y-151766883D01*
X166586997Y-151662692D01*
X166601140Y-151676835D01*
X166615282Y-151662692D01*
X166794887Y-151842297D01*
X166780745Y-151856440D01*
X166794887Y-151870582D01*
G36*
X167126710Y-149608540D02*
X166995589Y-149739661D01*
X166922970Y-149914979D01*
X166922970Y-150104741D01*
X166922970Y-150500268D01*
X166806106Y-150458673D01*
X166255602Y-150486635D01*
X165876875Y-150643509D01*
X165850570Y-150736655D01*
X165824265Y-150643509D01*
X165304966Y-150458673D01*
X164754462Y-150486635D01*
X164484000Y-150598664D01*
X164484000Y-148607026D01*
X164895034Y-148753327D01*
X165445538Y-148725365D01*
X165824265Y-148568491D01*
X165850570Y-148475344D01*
X165876875Y-148568491D01*
X166396174Y-148753327D01*
X166922970Y-148726569D01*
X166922970Y-149302101D01*
X166995589Y-149477419D01*
X167126710Y-149608540D01*
X167126710Y-149608540D01*
G37*
X167126710Y-149608540D02*
X166995589Y-149739661D01*
X166922970Y-149914979D01*
X166922970Y-150104741D01*
X166922970Y-150500268D01*
X166806106Y-150458673D01*
X166255602Y-150486635D01*
X165876875Y-150643509D01*
X165850570Y-150736655D01*
X165824265Y-150643509D01*
X165304966Y-150458673D01*
X164754462Y-150486635D01*
X164484000Y-150598664D01*
X164484000Y-148607026D01*
X164895034Y-148753327D01*
X165445538Y-148725365D01*
X165824265Y-148568491D01*
X165850570Y-148475344D01*
X165876875Y-148568491D01*
X166396174Y-148753327D01*
X166922970Y-148726569D01*
X166922970Y-149302101D01*
X166995589Y-149477419D01*
X167126710Y-149608540D01*
G36*
X181974000Y-154034932D02*
X180577932Y-155431000D01*
X174260067Y-155431000D01*
X172102000Y-153272932D01*
X172102000Y-153004000D01*
X172560881Y-153004000D01*
X172736199Y-152931381D01*
X172870381Y-152797199D01*
X172943000Y-152621881D01*
X172943000Y-152432119D01*
X172943000Y-150908119D01*
X172870381Y-150732801D01*
X172855580Y-150718000D01*
X173149260Y-150718000D01*
X173149260Y-150741382D01*
X173233952Y-150741382D01*
X173170868Y-150794250D01*
X173281898Y-151061597D01*
X173296040Y-151074898D01*
X173288112Y-151114760D01*
X173333895Y-151344929D01*
X173347272Y-151364950D01*
X173333895Y-151384971D01*
X173288112Y-151615140D01*
X173333895Y-151845309D01*
X173464276Y-152040436D01*
X173659403Y-152170817D01*
X173889572Y-152216600D01*
X174679708Y-152216600D01*
X174681820Y-152216179D01*
X174681400Y-152218292D01*
X174681400Y-153008428D01*
X174727183Y-153238597D01*
X174857564Y-153433724D01*
X175052691Y-153564105D01*
X175282860Y-153609888D01*
X175513029Y-153564105D01*
X175533050Y-153550727D01*
X175553071Y-153564105D01*
X175679620Y-153589276D01*
X175679620Y-154185620D01*
X175725597Y-154416761D01*
X175856528Y-154612712D01*
X176229907Y-154986092D01*
X176229908Y-154986092D01*
X176425859Y-155117023D01*
X176657000Y-155163000D01*
X177038000Y-155163000D01*
X180467000Y-155163000D01*
X180467000Y-155162999D01*
X180698140Y-155117023D01*
X180698141Y-155117023D01*
X180894092Y-154986092D01*
X181941090Y-153939094D01*
X181941091Y-153939094D01*
X181974000Y-153889841D01*
X181974000Y-153924000D01*
X181974000Y-154034932D01*
X181974000Y-154034932D01*
G37*
X181974000Y-154034932D02*
X180577932Y-155431000D01*
X174260067Y-155431000D01*
X172102000Y-153272932D01*
X172102000Y-153004000D01*
X172560881Y-153004000D01*
X172736199Y-152931381D01*
X172870381Y-152797199D01*
X172943000Y-152621881D01*
X172943000Y-152432119D01*
X172943000Y-150908119D01*
X172870381Y-150732801D01*
X172855580Y-150718000D01*
X173149260Y-150718000D01*
X173149260Y-150741382D01*
X173233952Y-150741382D01*
X173170868Y-150794250D01*
X173281898Y-151061597D01*
X173296040Y-151074898D01*
X173288112Y-151114760D01*
X173333895Y-151344929D01*
X173347272Y-151364950D01*
X173333895Y-151384971D01*
X173288112Y-151615140D01*
X173333895Y-151845309D01*
X173464276Y-152040436D01*
X173659403Y-152170817D01*
X173889572Y-152216600D01*
X174679708Y-152216600D01*
X174681820Y-152216179D01*
X174681400Y-152218292D01*
X174681400Y-153008428D01*
X174727183Y-153238597D01*
X174857564Y-153433724D01*
X175052691Y-153564105D01*
X175282860Y-153609888D01*
X175513029Y-153564105D01*
X175533050Y-153550727D01*
X175553071Y-153564105D01*
X175679620Y-153589276D01*
X175679620Y-154185620D01*
X175725597Y-154416761D01*
X175856528Y-154612712D01*
X176229907Y-154986092D01*
X176229908Y-154986092D01*
X176425859Y-155117023D01*
X176657000Y-155163000D01*
X177038000Y-155163000D01*
X180467000Y-155163000D01*
X180467000Y-155162999D01*
X180698140Y-155117023D01*
X180698141Y-155117023D01*
X180894092Y-154986092D01*
X181941090Y-153939094D01*
X181941091Y-153939094D01*
X181974000Y-153889841D01*
X181974000Y-153924000D01*
X181974000Y-154034932D01*
G36*
X202596000Y-154180194D02*
X202588381Y-154161801D01*
X202454199Y-154027619D01*
X202278881Y-153955000D01*
X202089119Y-153955000D01*
X200565119Y-153955000D01*
X200389801Y-154027619D01*
X200255619Y-154161801D01*
X200183000Y-154337119D01*
X200183000Y-154526881D01*
X200183000Y-156050881D01*
X200255619Y-156226199D01*
X200389801Y-156360381D01*
X200565119Y-156433000D01*
X200754881Y-156433000D01*
X202278881Y-156433000D01*
X202446065Y-156363750D01*
X202187815Y-156622000D01*
X199132184Y-156622000D01*
X198039092Y-155528908D01*
X197843141Y-155397977D01*
X197612000Y-155352000D01*
X197179927Y-155352000D01*
X197179927Y-151068520D01*
X197151148Y-150538801D01*
X197003800Y-150183071D01*
X196768188Y-150121417D01*
X196588583Y-150301022D01*
X196588583Y-149941812D01*
X196526929Y-149706200D01*
X196026520Y-149530073D01*
X195496801Y-149558852D01*
X195141071Y-149706200D01*
X195079417Y-149941812D01*
X195834000Y-150696395D01*
X196588583Y-149941812D01*
X196588583Y-150301022D01*
X196013605Y-150876000D01*
X196768188Y-151630583D01*
X197003800Y-151568929D01*
X197179927Y-151068520D01*
X197179927Y-155352000D01*
X196588583Y-155352000D01*
X196588583Y-151810188D01*
X195834000Y-151055605D01*
X195654395Y-151235210D01*
X195654395Y-150876000D01*
X194899812Y-150121417D01*
X194664200Y-150183071D01*
X194488073Y-150683480D01*
X194516852Y-151213199D01*
X194664200Y-151568929D01*
X194899812Y-151630583D01*
X195654395Y-150876000D01*
X195654395Y-151235210D01*
X195079417Y-151810188D01*
X195141071Y-152045800D01*
X195641480Y-152221927D01*
X196171199Y-152193148D01*
X196526929Y-152045800D01*
X196588583Y-151810188D01*
X196588583Y-155352000D01*
X193294000Y-155352000D01*
X193062859Y-155397977D01*
X192866907Y-155528908D01*
X191049800Y-157346015D01*
X190988847Y-157320705D01*
X190521204Y-157320297D01*
X190089003Y-157498879D01*
X189758041Y-157829264D01*
X189578705Y-158261153D01*
X189578297Y-158728796D01*
X189756879Y-159160997D01*
X190087264Y-159491959D01*
X190089771Y-159493000D01*
X189288580Y-159493000D01*
X189316881Y-159464699D01*
X189389500Y-159289381D01*
X189389500Y-159099619D01*
X189389500Y-157702619D01*
X189316881Y-157527301D01*
X189182699Y-157393119D01*
X189007381Y-157320500D01*
X188817619Y-157320500D01*
X187420619Y-157320500D01*
X187245301Y-157393119D01*
X187111119Y-157527301D01*
X187038500Y-157702619D01*
X187038500Y-157892381D01*
X187038500Y-159289381D01*
X187111119Y-159464699D01*
X187139420Y-159493000D01*
X185102500Y-159493000D01*
X185102500Y-152335809D01*
X185102500Y-152177750D01*
X184943750Y-152019000D01*
X184023000Y-152019000D01*
X184023000Y-152685750D01*
X184181750Y-152844500D01*
X184341191Y-152844500D01*
X184593810Y-152844500D01*
X184827199Y-152747827D01*
X185005827Y-152569198D01*
X185102500Y-152335809D01*
X185102500Y-159493000D01*
X184332072Y-159493000D01*
X184332072Y-156867500D01*
X170033950Y-156867500D01*
X170033950Y-153834410D01*
X170033950Y-153581791D01*
X170033950Y-153394410D01*
X169875200Y-153235660D01*
X168526460Y-153235660D01*
X168526460Y-154184350D01*
X168685210Y-154343100D01*
X169525259Y-154343100D01*
X169758648Y-154246427D01*
X169937277Y-154067799D01*
X170033950Y-153834410D01*
X170033950Y-156867500D01*
X169870928Y-156867500D01*
X169870928Y-159493000D01*
X168272460Y-159493000D01*
X164484000Y-159493000D01*
X164484000Y-153107906D01*
X164895034Y-153254207D01*
X165445538Y-153226245D01*
X165824265Y-153069371D01*
X165850570Y-152976224D01*
X165876875Y-153069371D01*
X166396174Y-153254207D01*
X166764970Y-153235474D01*
X166764970Y-153235662D01*
X166923718Y-153235662D01*
X166764970Y-153394410D01*
X166764970Y-153581791D01*
X166764970Y-153834410D01*
X166861643Y-154067799D01*
X167040272Y-154246427D01*
X167273661Y-154343100D01*
X168113710Y-154343100D01*
X168272460Y-154184350D01*
X168272460Y-153235660D01*
X168252460Y-153235660D01*
X168252460Y-152981660D01*
X168272460Y-152981660D01*
X168272460Y-152032970D01*
X168113710Y-151874220D01*
X167989399Y-151874220D01*
X167979825Y-151685740D01*
X169493831Y-151685740D01*
X169669149Y-151613121D01*
X169803331Y-151478939D01*
X169875950Y-151303621D01*
X169875950Y-151113859D01*
X169875950Y-150718000D01*
X170044420Y-150718000D01*
X170029619Y-150732801D01*
X169957000Y-150908119D01*
X169957000Y-151097881D01*
X169957000Y-152197136D01*
X169937277Y-152149521D01*
X169758648Y-151970893D01*
X169525259Y-151874220D01*
X168685210Y-151874220D01*
X168526460Y-152032970D01*
X168526460Y-152981660D01*
X169875200Y-152981660D01*
X170033950Y-152822910D01*
X170033950Y-152801530D01*
X170163801Y-152931381D01*
X170339119Y-153004000D01*
X170528881Y-153004000D01*
X170798000Y-153004000D01*
X170798000Y-153542994D01*
X170797999Y-153543000D01*
X170839396Y-153751112D01*
X170847631Y-153792510D01*
X170988966Y-154004034D01*
X173528963Y-156544030D01*
X173528966Y-156544034D01*
X173740490Y-156685369D01*
X173740491Y-156685369D01*
X173990000Y-156735000D01*
X180847994Y-156735000D01*
X180848000Y-156735001D01*
X180848000Y-156735000D01*
X181056112Y-156693603D01*
X181097509Y-156685369D01*
X181097510Y-156685369D01*
X181309034Y-156544034D01*
X183087030Y-154766036D01*
X183087034Y-154766034D01*
X183087034Y-154766033D01*
X183181471Y-154624698D01*
X183228369Y-154554510D01*
X183228370Y-154554509D01*
X183278000Y-154305000D01*
X183278001Y-154305000D01*
X183278000Y-154304994D01*
X183278000Y-153924000D01*
X183278000Y-152844500D01*
X183450809Y-152844500D01*
X183610250Y-152844500D01*
X183769000Y-152685750D01*
X183769000Y-152019000D01*
X183749000Y-152019000D01*
X183749000Y-151782000D01*
X183896000Y-151782000D01*
X187457461Y-151782000D01*
X187547264Y-151871959D01*
X187562000Y-151878077D01*
X187562000Y-153075920D01*
X187428619Y-153209301D01*
X187356000Y-153384619D01*
X187356000Y-153574381D01*
X187356000Y-154971381D01*
X187428619Y-155146699D01*
X187562801Y-155280881D01*
X187738119Y-155353500D01*
X187927881Y-155353500D01*
X188816881Y-155353500D01*
X188992199Y-155280881D01*
X189126381Y-155146699D01*
X189199000Y-154971381D01*
X189199000Y-154781619D01*
X189199000Y-153384619D01*
X189126381Y-153209301D01*
X188992199Y-153075119D01*
X188866000Y-153022845D01*
X188866000Y-151878491D01*
X188878997Y-151873121D01*
X189209959Y-151542736D01*
X189389295Y-151110847D01*
X189389703Y-150643204D01*
X189211121Y-150211003D01*
X188880736Y-149880041D01*
X188448847Y-149700705D01*
X187981204Y-149700297D01*
X187549003Y-149878879D01*
X187218041Y-150209264D01*
X187106452Y-150478000D01*
X184944500Y-150478000D01*
X184944500Y-149955619D01*
X184871881Y-149780301D01*
X184737699Y-149646119D01*
X184611500Y-149593845D01*
X184611500Y-149210851D01*
X184674199Y-149184881D01*
X184808381Y-149050699D01*
X184881000Y-148875381D01*
X184881000Y-148685619D01*
X184881000Y-147288619D01*
X184808381Y-147113301D01*
X184674199Y-146979119D01*
X184498881Y-146906500D01*
X184309119Y-146906500D01*
X183420119Y-146906500D01*
X183244801Y-146979119D01*
X183110619Y-147113301D01*
X183038000Y-147288619D01*
X183038000Y-147478381D01*
X183038000Y-148875381D01*
X183110619Y-149050699D01*
X183244801Y-149184881D01*
X183307500Y-149210851D01*
X183307500Y-149573500D01*
X183229619Y-149573500D01*
X183054301Y-149646119D01*
X182920119Y-149780301D01*
X182847500Y-149955619D01*
X182847500Y-150145381D01*
X182847500Y-150552346D01*
X182672966Y-150668966D01*
X182672963Y-150668969D01*
X182164966Y-151176966D01*
X182117998Y-151247258D01*
X182117998Y-146777186D01*
X182304684Y-146590500D01*
X187038500Y-146590500D01*
X187038500Y-146716381D01*
X187038500Y-148113000D01*
X186786000Y-148113000D01*
X186786000Y-147288619D01*
X186713381Y-147113301D01*
X186579199Y-146979119D01*
X186403881Y-146906500D01*
X186214119Y-146906500D01*
X185325119Y-146906500D01*
X185149801Y-146979119D01*
X185015619Y-147113301D01*
X184943000Y-147288619D01*
X184943000Y-147478381D01*
X184943000Y-148875381D01*
X185015619Y-149050699D01*
X185149801Y-149184881D01*
X185325119Y-149257500D01*
X185514881Y-149257500D01*
X186242134Y-149257500D01*
X186268359Y-149275023D01*
X186268360Y-149275023D01*
X186499500Y-149321000D01*
X189865000Y-149321000D01*
X189865000Y-149320999D01*
X190096140Y-149275023D01*
X190096141Y-149275023D01*
X190292092Y-149144092D01*
X190940522Y-148495662D01*
X190986796Y-148495703D01*
X191418997Y-148317121D01*
X191749959Y-147986736D01*
X191929295Y-147554847D01*
X191929703Y-147087204D01*
X191751121Y-146655003D01*
X191686730Y-146590500D01*
X192218315Y-146590500D01*
X192293064Y-146665248D01*
X192118705Y-147085153D01*
X192118297Y-147552796D01*
X192296879Y-147984997D01*
X192627264Y-148315959D01*
X193059153Y-148495295D01*
X193526796Y-148495703D01*
X193958997Y-148317121D01*
X193960000Y-148316119D01*
X193960000Y-149101815D01*
X193361256Y-149700558D01*
X193061204Y-149700297D01*
X192629003Y-149878879D01*
X192298041Y-150209264D01*
X192118705Y-150641153D01*
X192118297Y-151108796D01*
X192199936Y-151306378D01*
X191929703Y-151576611D01*
X191929703Y-150643204D01*
X191751121Y-150211003D01*
X191420736Y-149880041D01*
X190988847Y-149700705D01*
X190521204Y-149700297D01*
X190089003Y-149878879D01*
X189758041Y-150209264D01*
X189578705Y-150641153D01*
X189578297Y-151108796D01*
X189756879Y-151540997D01*
X190087264Y-151871959D01*
X190519153Y-152051295D01*
X190986796Y-152051703D01*
X191418997Y-151873121D01*
X191749959Y-151542736D01*
X191929295Y-151110847D01*
X191929703Y-150643204D01*
X191929703Y-151576611D01*
X190503815Y-153002500D01*
X189643119Y-153002500D01*
X189467801Y-153075119D01*
X189333619Y-153209301D01*
X189261000Y-153384619D01*
X189261000Y-153574381D01*
X189261000Y-154971381D01*
X189333619Y-155146699D01*
X189467801Y-155280881D01*
X189643119Y-155353500D01*
X189832881Y-155353500D01*
X190721881Y-155353500D01*
X190897199Y-155280881D01*
X191031381Y-155146699D01*
X191104000Y-154971381D01*
X191104000Y-154781619D01*
X191104000Y-154110684D01*
X193163298Y-152051385D01*
X193526796Y-152051703D01*
X193958997Y-151873121D01*
X194289959Y-151542736D01*
X194469295Y-151110847D01*
X194469703Y-150643204D01*
X194369497Y-150400687D01*
X194991092Y-149779093D01*
X194991092Y-149779092D01*
X195122023Y-149583141D01*
X195167999Y-149352000D01*
X195168000Y-149352000D01*
X195168000Y-148316264D01*
X195599153Y-148495295D01*
X196066796Y-148495703D01*
X196498997Y-148317121D01*
X196829959Y-147986736D01*
X197009295Y-147554847D01*
X197009703Y-147087204D01*
X196831121Y-146655003D01*
X196500736Y-146324041D01*
X196068847Y-146144705D01*
X195601204Y-146144297D01*
X195169003Y-146322879D01*
X195168000Y-146323880D01*
X195168000Y-146304000D01*
X195122023Y-146072860D01*
X195122023Y-146072859D01*
X195069579Y-145994372D01*
X194991093Y-145876908D01*
X193975092Y-144860908D01*
X193779141Y-144729977D01*
X193548000Y-144684000D01*
X183896000Y-144684000D01*
X183134000Y-144684000D01*
X183130184Y-144684000D01*
X182545095Y-144098911D01*
X182545093Y-144098908D01*
X181706000Y-143259815D01*
X181706000Y-143051021D01*
X182124467Y-143224784D01*
X182617371Y-143225214D01*
X183072920Y-143036985D01*
X183421760Y-142688753D01*
X183610784Y-142233533D01*
X183611214Y-141740629D01*
X183422985Y-141285080D01*
X183074753Y-140936240D01*
X182976000Y-140895234D01*
X182976000Y-140462000D01*
X182930023Y-140230859D01*
X182799092Y-140034908D01*
X182799092Y-140034907D01*
X182291092Y-139526908D01*
X182095141Y-139395977D01*
X181864000Y-139350000D01*
X176898314Y-139350000D01*
X176657000Y-139301999D01*
X176407491Y-139351630D01*
X176195967Y-139492966D01*
X175560966Y-140127966D01*
X175419631Y-140339490D01*
X175411396Y-140380887D01*
X175369999Y-140589000D01*
X175037750Y-140589000D01*
X174879000Y-140747750D01*
X174879000Y-141859000D01*
X174899000Y-141859000D01*
X174899000Y-142113000D01*
X174879000Y-142113000D01*
X174879000Y-143224250D01*
X175037750Y-143383000D01*
X175370000Y-143383000D01*
X175370000Y-143645652D01*
X175195809Y-143573500D01*
X175037750Y-143573500D01*
X174879000Y-143732250D01*
X174879000Y-144653000D01*
X174899000Y-144653000D01*
X174899000Y-144907000D01*
X174879000Y-144907000D01*
X174879000Y-144927000D01*
X174625000Y-144927000D01*
X174625000Y-144907000D01*
X174605000Y-144907000D01*
X174605000Y-144653000D01*
X174625000Y-144653000D01*
X174625000Y-143732250D01*
X174625000Y-143224250D01*
X174625000Y-142113000D01*
X174625000Y-141859000D01*
X174625000Y-140747750D01*
X174466250Y-140589000D01*
X173863691Y-140589000D01*
X173630302Y-140685673D01*
X173451673Y-140864301D01*
X173355000Y-141097690D01*
X173355000Y-141350309D01*
X173355000Y-141700250D01*
X173513750Y-141859000D01*
X174625000Y-141859000D01*
X174625000Y-142113000D01*
X173513750Y-142113000D01*
X173355000Y-142271750D01*
X173355000Y-142621691D01*
X173355000Y-142874310D01*
X173451673Y-143107699D01*
X173630302Y-143286327D01*
X173863691Y-143383000D01*
X174466250Y-143383000D01*
X174625000Y-143224250D01*
X174625000Y-143732250D01*
X174466250Y-143573500D01*
X174308191Y-143573500D01*
X174074802Y-143670173D01*
X173896173Y-143848801D01*
X173885689Y-143874109D01*
X173815699Y-143804119D01*
X173640381Y-143731500D01*
X173450619Y-143731500D01*
X172815619Y-143731500D01*
X172640301Y-143804119D01*
X172506119Y-143938301D01*
X172433500Y-144113619D01*
X172433500Y-144303381D01*
X172433500Y-145446381D01*
X172437658Y-145456420D01*
X169875950Y-145456420D01*
X169875950Y-145414099D01*
X169803331Y-145238781D01*
X169669149Y-145104599D01*
X169493831Y-145031980D01*
X169304069Y-145031980D01*
X167305089Y-145031980D01*
X167129771Y-145104599D01*
X166995589Y-145238781D01*
X166922970Y-145414099D01*
X166922970Y-145603861D01*
X166922970Y-145999388D01*
X166806106Y-145957793D01*
X166255602Y-145985755D01*
X165876875Y-146142629D01*
X165850570Y-146235775D01*
X165824265Y-146142629D01*
X165304966Y-145957793D01*
X164754462Y-145985755D01*
X164484000Y-146097784D01*
X164484000Y-138004500D01*
X186666078Y-138004500D01*
X186211289Y-138459289D01*
X186064534Y-138678924D01*
X186013000Y-138938000D01*
X186064534Y-139197076D01*
X186086000Y-139229202D01*
X186086000Y-141478000D01*
X186131977Y-141709141D01*
X186262908Y-141905092D01*
X187786907Y-143429092D01*
X187786908Y-143429092D01*
X187786910Y-143429094D01*
X188294907Y-143937092D01*
X188294908Y-143937092D01*
X188490859Y-144068023D01*
X188722000Y-144114000D01*
X195072000Y-144114000D01*
X196345815Y-144114000D01*
X197262000Y-145030184D01*
X197262000Y-150368000D01*
X197262000Y-151395372D01*
X197239000Y-151511000D01*
X197286728Y-151750942D01*
X197422644Y-151954356D01*
X198540271Y-153071983D01*
X198611466Y-153178534D01*
X198822990Y-153319869D01*
X199072500Y-153369500D01*
X200153317Y-153369500D01*
X200279000Y-153394500D01*
X200388735Y-153372671D01*
X200719247Y-153703760D01*
X201174467Y-153892784D01*
X201667371Y-153893214D01*
X202122920Y-153704985D01*
X202471760Y-153356753D01*
X202596000Y-153057550D01*
X202596000Y-154180194D01*
X202596000Y-154180194D01*
G37*
X202596000Y-154180194D02*
X202588381Y-154161801D01*
X202454199Y-154027619D01*
X202278881Y-153955000D01*
X202089119Y-153955000D01*
X200565119Y-153955000D01*
X200389801Y-154027619D01*
X200255619Y-154161801D01*
X200183000Y-154337119D01*
X200183000Y-154526881D01*
X200183000Y-156050881D01*
X200255619Y-156226199D01*
X200389801Y-156360381D01*
X200565119Y-156433000D01*
X200754881Y-156433000D01*
X202278881Y-156433000D01*
X202446065Y-156363750D01*
X202187815Y-156622000D01*
X199132184Y-156622000D01*
X198039092Y-155528908D01*
X197843141Y-155397977D01*
X197612000Y-155352000D01*
X197179927Y-155352000D01*
X197179927Y-151068520D01*
X197151148Y-150538801D01*
X197003800Y-150183071D01*
X196768188Y-150121417D01*
X196588583Y-150301022D01*
X196588583Y-149941812D01*
X196526929Y-149706200D01*
X196026520Y-149530073D01*
X195496801Y-149558852D01*
X195141071Y-149706200D01*
X195079417Y-149941812D01*
X195834000Y-150696395D01*
X196588583Y-149941812D01*
X196588583Y-150301022D01*
X196013605Y-150876000D01*
X196768188Y-151630583D01*
X197003800Y-151568929D01*
X197179927Y-151068520D01*
X197179927Y-155352000D01*
X196588583Y-155352000D01*
X196588583Y-151810188D01*
X195834000Y-151055605D01*
X195654395Y-151235210D01*
X195654395Y-150876000D01*
X194899812Y-150121417D01*
X194664200Y-150183071D01*
X194488073Y-150683480D01*
X194516852Y-151213199D01*
X194664200Y-151568929D01*
X194899812Y-151630583D01*
X195654395Y-150876000D01*
X195654395Y-151235210D01*
X195079417Y-151810188D01*
X195141071Y-152045800D01*
X195641480Y-152221927D01*
X196171199Y-152193148D01*
X196526929Y-152045800D01*
X196588583Y-151810188D01*
X196588583Y-155352000D01*
X193294000Y-155352000D01*
X193062859Y-155397977D01*
X192866907Y-155528908D01*
X191049800Y-157346015D01*
X190988847Y-157320705D01*
X190521204Y-157320297D01*
X190089003Y-157498879D01*
X189758041Y-157829264D01*
X189578705Y-158261153D01*
X189578297Y-158728796D01*
X189756879Y-159160997D01*
X190087264Y-159491959D01*
X190089771Y-159493000D01*
X189288580Y-159493000D01*
X189316881Y-159464699D01*
X189389500Y-159289381D01*
X189389500Y-159099619D01*
X189389500Y-157702619D01*
X189316881Y-157527301D01*
X189182699Y-157393119D01*
X189007381Y-157320500D01*
X188817619Y-157320500D01*
X187420619Y-157320500D01*
X187245301Y-157393119D01*
X187111119Y-157527301D01*
X187038500Y-157702619D01*
X187038500Y-157892381D01*
X187038500Y-159289381D01*
X187111119Y-159464699D01*
X187139420Y-159493000D01*
X185102500Y-159493000D01*
X185102500Y-152335809D01*
X185102500Y-152177750D01*
X184943750Y-152019000D01*
X184023000Y-152019000D01*
X184023000Y-152685750D01*
X184181750Y-152844500D01*
X184341191Y-152844500D01*
X184593810Y-152844500D01*
X184827199Y-152747827D01*
X185005827Y-152569198D01*
X185102500Y-152335809D01*
X185102500Y-159493000D01*
X184332072Y-159493000D01*
X184332072Y-156867500D01*
X170033950Y-156867500D01*
X170033950Y-153834410D01*
X170033950Y-153581791D01*
X170033950Y-153394410D01*
X169875200Y-153235660D01*
X168526460Y-153235660D01*
X168526460Y-154184350D01*
X168685210Y-154343100D01*
X169525259Y-154343100D01*
X169758648Y-154246427D01*
X169937277Y-154067799D01*
X170033950Y-153834410D01*
X170033950Y-156867500D01*
X169870928Y-156867500D01*
X169870928Y-159493000D01*
X168272460Y-159493000D01*
X164484000Y-159493000D01*
X164484000Y-153107906D01*
X164895034Y-153254207D01*
X165445538Y-153226245D01*
X165824265Y-153069371D01*
X165850570Y-152976224D01*
X165876875Y-153069371D01*
X166396174Y-153254207D01*
X166764970Y-153235474D01*
X166764970Y-153235662D01*
X166923718Y-153235662D01*
X166764970Y-153394410D01*
X166764970Y-153581791D01*
X166764970Y-153834410D01*
X166861643Y-154067799D01*
X167040272Y-154246427D01*
X167273661Y-154343100D01*
X168113710Y-154343100D01*
X168272460Y-154184350D01*
X168272460Y-153235660D01*
X168252460Y-153235660D01*
X168252460Y-152981660D01*
X168272460Y-152981660D01*
X168272460Y-152032970D01*
X168113710Y-151874220D01*
X167989399Y-151874220D01*
X167979825Y-151685740D01*
X169493831Y-151685740D01*
X169669149Y-151613121D01*
X169803331Y-151478939D01*
X169875950Y-151303621D01*
X169875950Y-151113859D01*
X169875950Y-150718000D01*
X170044420Y-150718000D01*
X170029619Y-150732801D01*
X169957000Y-150908119D01*
X169957000Y-151097881D01*
X169957000Y-152197136D01*
X169937277Y-152149521D01*
X169758648Y-151970893D01*
X169525259Y-151874220D01*
X168685210Y-151874220D01*
X168526460Y-152032970D01*
X168526460Y-152981660D01*
X169875200Y-152981660D01*
X170033950Y-152822910D01*
X170033950Y-152801530D01*
X170163801Y-152931381D01*
X170339119Y-153004000D01*
X170528881Y-153004000D01*
X170798000Y-153004000D01*
X170798000Y-153542994D01*
X170797999Y-153543000D01*
X170839396Y-153751112D01*
X170847631Y-153792510D01*
X170988966Y-154004034D01*
X173528963Y-156544030D01*
X173528966Y-156544034D01*
X173740490Y-156685369D01*
X173740491Y-156685369D01*
X173990000Y-156735000D01*
X180847994Y-156735000D01*
X180848000Y-156735001D01*
X180848000Y-156735000D01*
X181056112Y-156693603D01*
X181097509Y-156685369D01*
X181097510Y-156685369D01*
X181309034Y-156544034D01*
X183087030Y-154766036D01*
X183087034Y-154766034D01*
X183087034Y-154766033D01*
X183181471Y-154624698D01*
X183228369Y-154554510D01*
X183228370Y-154554509D01*
X183278000Y-154305000D01*
X183278001Y-154305000D01*
X183278000Y-154304994D01*
X183278000Y-153924000D01*
X183278000Y-152844500D01*
X183450809Y-152844500D01*
X183610250Y-152844500D01*
X183769000Y-152685750D01*
X183769000Y-152019000D01*
X183749000Y-152019000D01*
X183749000Y-151782000D01*
X183896000Y-151782000D01*
X187457461Y-151782000D01*
X187547264Y-151871959D01*
X187562000Y-151878077D01*
X187562000Y-153075920D01*
X187428619Y-153209301D01*
X187356000Y-153384619D01*
X187356000Y-153574381D01*
X187356000Y-154971381D01*
X187428619Y-155146699D01*
X187562801Y-155280881D01*
X187738119Y-155353500D01*
X187927881Y-155353500D01*
X188816881Y-155353500D01*
X188992199Y-155280881D01*
X189126381Y-155146699D01*
X189199000Y-154971381D01*
X189199000Y-154781619D01*
X189199000Y-153384619D01*
X189126381Y-153209301D01*
X188992199Y-153075119D01*
X188866000Y-153022845D01*
X188866000Y-151878491D01*
X188878997Y-151873121D01*
X189209959Y-151542736D01*
X189389295Y-151110847D01*
X189389703Y-150643204D01*
X189211121Y-150211003D01*
X188880736Y-149880041D01*
X188448847Y-149700705D01*
X187981204Y-149700297D01*
X187549003Y-149878879D01*
X187218041Y-150209264D01*
X187106452Y-150478000D01*
X184944500Y-150478000D01*
X184944500Y-149955619D01*
X184871881Y-149780301D01*
X184737699Y-149646119D01*
X184611500Y-149593845D01*
X184611500Y-149210851D01*
X184674199Y-149184881D01*
X184808381Y-149050699D01*
X184881000Y-148875381D01*
X184881000Y-148685619D01*
X184881000Y-147288619D01*
X184808381Y-147113301D01*
X184674199Y-146979119D01*
X184498881Y-146906500D01*
X184309119Y-146906500D01*
X183420119Y-146906500D01*
X183244801Y-146979119D01*
X183110619Y-147113301D01*
X183038000Y-147288619D01*
X183038000Y-147478381D01*
X183038000Y-148875381D01*
X183110619Y-149050699D01*
X183244801Y-149184881D01*
X183307500Y-149210851D01*
X183307500Y-149573500D01*
X183229619Y-149573500D01*
X183054301Y-149646119D01*
X182920119Y-149780301D01*
X182847500Y-149955619D01*
X182847500Y-150145381D01*
X182847500Y-150552346D01*
X182672966Y-150668966D01*
X182672963Y-150668969D01*
X182164966Y-151176966D01*
X182117998Y-151247258D01*
X182117998Y-146777186D01*
X182304684Y-146590500D01*
X187038500Y-146590500D01*
X187038500Y-146716381D01*
X187038500Y-148113000D01*
X186786000Y-148113000D01*
X186786000Y-147288619D01*
X186713381Y-147113301D01*
X186579199Y-146979119D01*
X186403881Y-146906500D01*
X186214119Y-146906500D01*
X185325119Y-146906500D01*
X185149801Y-146979119D01*
X185015619Y-147113301D01*
X184943000Y-147288619D01*
X184943000Y-147478381D01*
X184943000Y-148875381D01*
X185015619Y-149050699D01*
X185149801Y-149184881D01*
X185325119Y-149257500D01*
X185514881Y-149257500D01*
X186242134Y-149257500D01*
X186268359Y-149275023D01*
X186268360Y-149275023D01*
X186499500Y-149321000D01*
X189865000Y-149321000D01*
X189865000Y-149320999D01*
X190096140Y-149275023D01*
X190096141Y-149275023D01*
X190292092Y-149144092D01*
X190940522Y-148495662D01*
X190986796Y-148495703D01*
X191418997Y-148317121D01*
X191749959Y-147986736D01*
X191929295Y-147554847D01*
X191929703Y-147087204D01*
X191751121Y-146655003D01*
X191686730Y-146590500D01*
X192218315Y-146590500D01*
X192293064Y-146665248D01*
X192118705Y-147085153D01*
X192118297Y-147552796D01*
X192296879Y-147984997D01*
X192627264Y-148315959D01*
X193059153Y-148495295D01*
X193526796Y-148495703D01*
X193958997Y-148317121D01*
X193960000Y-148316119D01*
X193960000Y-149101815D01*
X193361256Y-149700558D01*
X193061204Y-149700297D01*
X192629003Y-149878879D01*
X192298041Y-150209264D01*
X192118705Y-150641153D01*
X192118297Y-151108796D01*
X192199936Y-151306378D01*
X191929703Y-151576611D01*
X191929703Y-150643204D01*
X191751121Y-150211003D01*
X191420736Y-149880041D01*
X190988847Y-149700705D01*
X190521204Y-149700297D01*
X190089003Y-149878879D01*
X189758041Y-150209264D01*
X189578705Y-150641153D01*
X189578297Y-151108796D01*
X189756879Y-151540997D01*
X190087264Y-151871959D01*
X190519153Y-152051295D01*
X190986796Y-152051703D01*
X191418997Y-151873121D01*
X191749959Y-151542736D01*
X191929295Y-151110847D01*
X191929703Y-150643204D01*
X191929703Y-151576611D01*
X190503815Y-153002500D01*
X189643119Y-153002500D01*
X189467801Y-153075119D01*
X189333619Y-153209301D01*
X189261000Y-153384619D01*
X189261000Y-153574381D01*
X189261000Y-154971381D01*
X189333619Y-155146699D01*
X189467801Y-155280881D01*
X189643119Y-155353500D01*
X189832881Y-155353500D01*
X190721881Y-155353500D01*
X190897199Y-155280881D01*
X191031381Y-155146699D01*
X191104000Y-154971381D01*
X191104000Y-154781619D01*
X191104000Y-154110684D01*
X193163298Y-152051385D01*
X193526796Y-152051703D01*
X193958997Y-151873121D01*
X194289959Y-151542736D01*
X194469295Y-151110847D01*
X194469703Y-150643204D01*
X194369497Y-150400687D01*
X194991092Y-149779093D01*
X194991092Y-149779092D01*
X195122023Y-149583141D01*
X195167999Y-149352000D01*
X195168000Y-149352000D01*
X195168000Y-148316264D01*
X195599153Y-148495295D01*
X196066796Y-148495703D01*
X196498997Y-148317121D01*
X196829959Y-147986736D01*
X197009295Y-147554847D01*
X197009703Y-147087204D01*
X196831121Y-146655003D01*
X196500736Y-146324041D01*
X196068847Y-146144705D01*
X195601204Y-146144297D01*
X195169003Y-146322879D01*
X195168000Y-146323880D01*
X195168000Y-146304000D01*
X195122023Y-146072860D01*
X195122023Y-146072859D01*
X195069579Y-145994372D01*
X194991093Y-145876908D01*
X193975092Y-144860908D01*
X193779141Y-144729977D01*
X193548000Y-144684000D01*
X183896000Y-144684000D01*
X183134000Y-144684000D01*
X183130184Y-144684000D01*
X182545095Y-144098911D01*
X182545093Y-144098908D01*
X181706000Y-143259815D01*
X181706000Y-143051021D01*
X182124467Y-143224784D01*
X182617371Y-143225214D01*
X183072920Y-143036985D01*
X183421760Y-142688753D01*
X183610784Y-142233533D01*
X183611214Y-141740629D01*
X183422985Y-141285080D01*
X183074753Y-140936240D01*
X182976000Y-140895234D01*
X182976000Y-140462000D01*
X182930023Y-140230859D01*
X182799092Y-140034908D01*
X182799092Y-140034907D01*
X182291092Y-139526908D01*
X182095141Y-139395977D01*
X181864000Y-139350000D01*
X176898314Y-139350000D01*
X176657000Y-139301999D01*
X176407491Y-139351630D01*
X176195967Y-139492966D01*
X175560966Y-140127966D01*
X175419631Y-140339490D01*
X175411396Y-140380887D01*
X175369999Y-140589000D01*
X175037750Y-140589000D01*
X174879000Y-140747750D01*
X174879000Y-141859000D01*
X174899000Y-141859000D01*
X174899000Y-142113000D01*
X174879000Y-142113000D01*
X174879000Y-143224250D01*
X175037750Y-143383000D01*
X175370000Y-143383000D01*
X175370000Y-143645652D01*
X175195809Y-143573500D01*
X175037750Y-143573500D01*
X174879000Y-143732250D01*
X174879000Y-144653000D01*
X174899000Y-144653000D01*
X174899000Y-144907000D01*
X174879000Y-144907000D01*
X174879000Y-144927000D01*
X174625000Y-144927000D01*
X174625000Y-144907000D01*
X174605000Y-144907000D01*
X174605000Y-144653000D01*
X174625000Y-144653000D01*
X174625000Y-143732250D01*
X174625000Y-143224250D01*
X174625000Y-142113000D01*
X174625000Y-141859000D01*
X174625000Y-140747750D01*
X174466250Y-140589000D01*
X173863691Y-140589000D01*
X173630302Y-140685673D01*
X173451673Y-140864301D01*
X173355000Y-141097690D01*
X173355000Y-141350309D01*
X173355000Y-141700250D01*
X173513750Y-141859000D01*
X174625000Y-141859000D01*
X174625000Y-142113000D01*
X173513750Y-142113000D01*
X173355000Y-142271750D01*
X173355000Y-142621691D01*
X173355000Y-142874310D01*
X173451673Y-143107699D01*
X173630302Y-143286327D01*
X173863691Y-143383000D01*
X174466250Y-143383000D01*
X174625000Y-143224250D01*
X174625000Y-143732250D01*
X174466250Y-143573500D01*
X174308191Y-143573500D01*
X174074802Y-143670173D01*
X173896173Y-143848801D01*
X173885689Y-143874109D01*
X173815699Y-143804119D01*
X173640381Y-143731500D01*
X173450619Y-143731500D01*
X172815619Y-143731500D01*
X172640301Y-143804119D01*
X172506119Y-143938301D01*
X172433500Y-144113619D01*
X172433500Y-144303381D01*
X172433500Y-145446381D01*
X172437658Y-145456420D01*
X169875950Y-145456420D01*
X169875950Y-145414099D01*
X169803331Y-145238781D01*
X169669149Y-145104599D01*
X169493831Y-145031980D01*
X169304069Y-145031980D01*
X167305089Y-145031980D01*
X167129771Y-145104599D01*
X166995589Y-145238781D01*
X166922970Y-145414099D01*
X166922970Y-145603861D01*
X166922970Y-145999388D01*
X166806106Y-145957793D01*
X166255602Y-145985755D01*
X165876875Y-146142629D01*
X165850570Y-146235775D01*
X165824265Y-146142629D01*
X165304966Y-145957793D01*
X164754462Y-145985755D01*
X164484000Y-146097784D01*
X164484000Y-138004500D01*
X186666078Y-138004500D01*
X186211289Y-138459289D01*
X186064534Y-138678924D01*
X186013000Y-138938000D01*
X186064534Y-139197076D01*
X186086000Y-139229202D01*
X186086000Y-141478000D01*
X186131977Y-141709141D01*
X186262908Y-141905092D01*
X187786907Y-143429092D01*
X187786908Y-143429092D01*
X187786910Y-143429094D01*
X188294907Y-143937092D01*
X188294908Y-143937092D01*
X188490859Y-144068023D01*
X188722000Y-144114000D01*
X195072000Y-144114000D01*
X196345815Y-144114000D01*
X197262000Y-145030184D01*
X197262000Y-150368000D01*
X197262000Y-151395372D01*
X197239000Y-151511000D01*
X197286728Y-151750942D01*
X197422644Y-151954356D01*
X198540271Y-153071983D01*
X198611466Y-153178534D01*
X198822990Y-153319869D01*
X199072500Y-153369500D01*
X200153317Y-153369500D01*
X200279000Y-153394500D01*
X200388735Y-153372671D01*
X200719247Y-153703760D01*
X201174467Y-153892784D01*
X201667371Y-153893214D01*
X202122920Y-153704985D01*
X202471760Y-153356753D01*
X202596000Y-153057550D01*
X202596000Y-154180194D01*
M02*
