M48
;DRILL file {KiCad (2015-08-11 BZR 6084)-product} date 9/4/2015 1:52:38 AM
;FORMAT={-:-/ absolute / inch / decimal}
FMAT,2
INCH,TZ
T1C0.032
T2C0.039
T3C0.040
%
G90
G05
M72
T1
X7.41Y-5.5
X7.41Y-5.8
X7.41Y-5.94
X7.41Y-6.24
X7.51Y-5.5
X7.51Y-5.8
X7.51Y-5.94
X7.51Y-6.24
X7.61Y-5.5
X7.61Y-5.8
X7.61Y-5.94
X7.61Y-6.24
X7.71Y-5.5
X7.71Y-5.8
X7.71Y-5.94
X7.71Y-6.24
T2
X6.5Y-5.8014
X6.5Y-5.9786
X6.5591Y-5.8014
X6.5591Y-5.9786
T3
X6.88Y-5.59
X6.98Y-5.59
X7.08Y-5.59
X7.18Y-5.59
X7.93Y-5.71
X7.93Y-5.81
X7.93Y-5.91
X7.93Y-6.01
X7.93Y-6.11
T0
M30
