G04 #@! TF.FileFunction,Legend,Top*
%FSLAX46Y46*%
G04 Gerber Fmt 4.6, Leading zero omitted, Abs format (unit mm)*
G04 Created by KiCad (PCBNEW (2015-08-11 BZR 6084)-product) date 9/4/2015 12:03:17 PM*
%MOMM*%
G01*
G04 APERTURE LIST*
%ADD10C,0.150000*%
%ADD11C,0.304800*%
%ADD12C,0.254000*%
%ADD13C,0.203200*%
G04 APERTURE END LIST*
D10*
D11*
X200152000Y-156464000D02*
X202692000Y-156464000D01*
X202692000Y-143764000D02*
X200152000Y-143764000D01*
X200152000Y-156464000D02*
X200152000Y-143764000D01*
X202692000Y-143764000D02*
X202692000Y-156464000D01*
D12*
X183642000Y-143256000D02*
X173482000Y-143256000D01*
X183642000Y-140716000D02*
X173482000Y-140716000D01*
X173482000Y-140716000D02*
X173482000Y-143256000D01*
X183642000Y-143256000D02*
X183642000Y-140716000D01*
X186944000Y-142240000D02*
X188214000Y-142240000D01*
X188214000Y-142240000D02*
X188214000Y-144780000D01*
X188214000Y-144780000D02*
X186944000Y-144780000D01*
X186944000Y-140970000D02*
X197104000Y-140970000D01*
X197104000Y-140970000D02*
X197104000Y-146050000D01*
X197104000Y-146050000D02*
X186944000Y-146050000D01*
X186944000Y-146050000D02*
X186944000Y-140970000D01*
X186944000Y-153416000D02*
X188214000Y-153416000D01*
X188214000Y-153416000D02*
X188214000Y-155956000D01*
X188214000Y-155956000D02*
X186944000Y-155956000D01*
X186944000Y-152146000D02*
X197104000Y-152146000D01*
X197104000Y-152146000D02*
X197104000Y-157226000D01*
X197104000Y-157226000D02*
X186944000Y-157226000D01*
X186944000Y-157226000D02*
X186944000Y-152146000D01*
D13*
X199341619Y-150863904D02*
X198325619Y-150863904D01*
X198325619Y-150476857D01*
X198374000Y-150380095D01*
X198422381Y-150331714D01*
X198519143Y-150283333D01*
X198664286Y-150283333D01*
X198761048Y-150331714D01*
X198809429Y-150380095D01*
X198857810Y-150476857D01*
X198857810Y-150863904D01*
X199341619Y-149315714D02*
X199341619Y-149896285D01*
X199341619Y-149605999D02*
X198325619Y-149605999D01*
X198470762Y-149702761D01*
X198567524Y-149799523D01*
X198615905Y-149896285D01*
X177812096Y-139905619D02*
X177812096Y-138889619D01*
X178199143Y-138889619D01*
X178295905Y-138938000D01*
X178344286Y-138986381D01*
X178392667Y-139083143D01*
X178392667Y-139228286D01*
X178344286Y-139325048D01*
X178295905Y-139373429D01*
X178199143Y-139421810D01*
X177812096Y-139421810D01*
X178779715Y-138986381D02*
X178828096Y-138938000D01*
X178924858Y-138889619D01*
X179166762Y-138889619D01*
X179263524Y-138938000D01*
X179311905Y-138986381D01*
X179360286Y-139083143D01*
X179360286Y-139179905D01*
X179311905Y-139325048D01*
X178731334Y-139905619D01*
X179360286Y-139905619D01*
X184978524Y-144380857D02*
X186006619Y-144380857D01*
X186127571Y-144326429D01*
X186188048Y-144272000D01*
X186248524Y-144163143D01*
X186248524Y-143945429D01*
X186188048Y-143836571D01*
X186127571Y-143782143D01*
X186006619Y-143727714D01*
X184978524Y-143727714D01*
X186248524Y-142584714D02*
X186248524Y-143237857D01*
X186248524Y-142911285D02*
X184978524Y-142911285D01*
X185159952Y-143020142D01*
X185280905Y-143129000D01*
X185341381Y-143237857D01*
X190233905Y-142814524D02*
X190040382Y-142814524D01*
X189943620Y-142875000D01*
X189895239Y-142935476D01*
X189798477Y-143116905D01*
X189750096Y-143358810D01*
X189750096Y-143842619D01*
X189798477Y-143963571D01*
X189846858Y-144024048D01*
X189943620Y-144084524D01*
X190137143Y-144084524D01*
X190233905Y-144024048D01*
X190282286Y-143963571D01*
X190330667Y-143842619D01*
X190330667Y-143540238D01*
X190282286Y-143419286D01*
X190233905Y-143358810D01*
X190137143Y-143298333D01*
X189943620Y-143298333D01*
X189846858Y-143358810D01*
X189798477Y-143419286D01*
X189750096Y-143540238D01*
X190766096Y-144084524D02*
X190766096Y-142814524D01*
X191346667Y-144084524D01*
X191346667Y-142814524D01*
X192362667Y-144084524D02*
X191782096Y-144084524D01*
X192072382Y-144084524D02*
X192072382Y-142814524D01*
X191975620Y-142995952D01*
X191878858Y-143116905D01*
X191782096Y-143177381D01*
X192701334Y-142814524D02*
X193330286Y-142814524D01*
X192991620Y-143298333D01*
X193136762Y-143298333D01*
X193233524Y-143358810D01*
X193281905Y-143419286D01*
X193330286Y-143540238D01*
X193330286Y-143842619D01*
X193281905Y-143963571D01*
X193233524Y-144024048D01*
X193136762Y-144084524D01*
X192846477Y-144084524D01*
X192749715Y-144024048D01*
X192701334Y-143963571D01*
X193668953Y-142814524D02*
X194346286Y-142814524D01*
X193910858Y-144084524D01*
X184978524Y-155556857D02*
X186006619Y-155556857D01*
X186127571Y-155502429D01*
X186188048Y-155448000D01*
X186248524Y-155339143D01*
X186248524Y-155121429D01*
X186188048Y-155012571D01*
X186127571Y-154958143D01*
X186006619Y-154903714D01*
X184978524Y-154903714D01*
X185099476Y-154413857D02*
X185039000Y-154359428D01*
X184978524Y-154250571D01*
X184978524Y-153978428D01*
X185039000Y-153869571D01*
X185099476Y-153815142D01*
X185220429Y-153760714D01*
X185341381Y-153760714D01*
X185522810Y-153815142D01*
X186248524Y-154468285D01*
X186248524Y-153760714D01*
X190233905Y-153990524D02*
X190040382Y-153990524D01*
X189943620Y-154051000D01*
X189895239Y-154111476D01*
X189798477Y-154292905D01*
X189750096Y-154534810D01*
X189750096Y-155018619D01*
X189798477Y-155139571D01*
X189846858Y-155200048D01*
X189943620Y-155260524D01*
X190137143Y-155260524D01*
X190233905Y-155200048D01*
X190282286Y-155139571D01*
X190330667Y-155018619D01*
X190330667Y-154716238D01*
X190282286Y-154595286D01*
X190233905Y-154534810D01*
X190137143Y-154474333D01*
X189943620Y-154474333D01*
X189846858Y-154534810D01*
X189798477Y-154595286D01*
X189750096Y-154716238D01*
X190766096Y-155260524D02*
X190766096Y-153990524D01*
X191346667Y-155260524D01*
X191346667Y-153990524D01*
X192362667Y-155260524D02*
X191782096Y-155260524D01*
X192072382Y-155260524D02*
X192072382Y-153990524D01*
X191975620Y-154171952D01*
X191878858Y-154292905D01*
X191782096Y-154353381D01*
X192701334Y-153990524D02*
X193330286Y-153990524D01*
X192991620Y-154474333D01*
X193136762Y-154474333D01*
X193233524Y-154534810D01*
X193281905Y-154595286D01*
X193330286Y-154716238D01*
X193330286Y-155018619D01*
X193281905Y-155139571D01*
X193233524Y-155200048D01*
X193136762Y-155260524D01*
X192846477Y-155260524D01*
X192749715Y-155200048D01*
X192701334Y-155139571D01*
X193910858Y-154534810D02*
X193814096Y-154474333D01*
X193765715Y-154413857D01*
X193717334Y-154292905D01*
X193717334Y-154232429D01*
X193765715Y-154111476D01*
X193814096Y-154051000D01*
X193910858Y-153990524D01*
X194104381Y-153990524D01*
X194201143Y-154051000D01*
X194249524Y-154111476D01*
X194297905Y-154232429D01*
X194297905Y-154292905D01*
X194249524Y-154413857D01*
X194201143Y-154474333D01*
X194104381Y-154534810D01*
X193910858Y-154534810D01*
X193814096Y-154595286D01*
X193765715Y-154655762D01*
X193717334Y-154776714D01*
X193717334Y-155018619D01*
X193765715Y-155139571D01*
X193814096Y-155200048D01*
X193910858Y-155260524D01*
X194104381Y-155260524D01*
X194201143Y-155200048D01*
X194249524Y-155139571D01*
X194297905Y-155018619D01*
X194297905Y-154776714D01*
X194249524Y-154655762D01*
X194201143Y-154595286D01*
X194104381Y-154534810D01*
M02*
